<svg width="139" height="41" fill="none" xmlns="http://www.w3.org/2000/svg"><path fill-rule="evenodd" clip-rule="evenodd" d="M134.043 41.195H5.157C2.315 41.195 0 38.88 0 36.061V5.255C0 2.425 2.315.12 5.157.12h128.886c2.839 0 5.157 2.305 5.157 5.135V36.06c0 2.82-2.318 5.134-5.157 5.134Z" fill="#000"/><path fill-rule="evenodd" clip-rule="evenodd" d="M134.043.942c2.384 0 4.335 1.939 4.335 4.313V36.06c0 2.374-1.939 4.312-4.335 4.312H5.157c-2.384 0-4.335-1.938-4.335-4.312V5.255C.822 2.88 2.761.942 5.157.942h128.886Zm0-.822H5.157C2.315.12 0 2.435 0 5.255V36.06c0 2.83 2.315 5.134 5.157 5.134h128.886c2.839 0 5.157-2.304 5.157-5.134V5.255c0-2.82-2.318-5.135-5.157-5.135Z" fill="#A6A6A6"/><path d="M73.331 13.708c-.93 0-1.713-.325-2.333-.965a3.288 3.288 0 0 1-.942-2.356c0-.935.317-1.726.942-2.354.617-.64 1.4-.965 2.33-.965.92 0 1.703.325 2.333.965.625.648.943 1.44.943 2.354-.01.937-.328 1.728-.943 2.353-.617.645-1.4.968-2.33.968Zm-27.66 0a3.24 3.24 0 0 1-2.342-.953c-.64-.63-.966-1.426-.966-2.366 0-.94.325-1.736.966-2.366.632-.632 1.42-.953 2.343-.953.45 0 .888.09 1.308.272.413.177.748.417.997.712l.061.074-.694.681-.072-.084c-.392-.466-.916-.694-1.61-.694-.62 0-1.16.22-1.606.655-.448.438-.676 1.012-.676 1.706s.228 1.267.676 1.705c.446.436.986.656 1.606.656.66 0 1.216-.22 1.649-.656.256-.256.415-.614.47-1.068h-2.224v-.957h3.18l.013.087c.023.161.046.327.046.481 0 .884-.266 1.598-.794 2.126-.6.624-1.383.942-2.33.942Zm36.777-.136h-.981l-3.004-4.806.026.865v3.939h-.981V7.206h1.119l.03.049 2.825 4.527-.025-.863V7.206h.99v6.366Zm-16.487 0h-.993V8.164h-1.724v-.958h4.438v.958h-1.724v5.408h.003Zm-3.526 0h-.991V7.206h.99v6.366Zm-5.57 0h-.99V8.164H54.15v-.958h4.438v.958h-1.724v5.408Zm-3.342-.01h-3.8V7.206h3.8v.958h-2.806V9.91h2.532v.948h-2.532v1.746h2.806v.958Zm18.202-1.477c.444.442.981.665 1.606.665.643 0 1.168-.217 1.606-.665.435-.436.655-1.007.655-1.696 0-.689-.22-1.262-.653-1.695a2.197 2.197 0 0 0-1.605-.666c-.643 0-1.168.218-1.603.666-.436.435-.656 1.006-.656 1.695 0 .69.218 1.263.65 1.696Z" fill="#fff"/><path fill-rule="evenodd" clip-rule="evenodd" d="M69.964 22.46c-2.42 0-4.382 1.836-4.382 4.369 0 2.51 1.975 4.369 4.382 4.369 2.42 0 4.381-1.85 4.381-4.37 0-2.532-1.961-4.368-4.381-4.368Zm0 7.006c-1.324 0-2.464-1.096-2.464-2.648 0-1.574 1.142-2.647 2.464-2.647 1.324 0 2.463 1.073 2.463 2.648.003 1.562-1.14 2.647-2.463 2.647Zm-9.56-7.006c-2.42 0-4.381 1.836-4.381 4.369 0 2.51 1.974 4.369 4.381 4.369 2.42 0 4.382-1.85 4.382-4.37 0-2.532-1.964-4.368-4.382-4.368Zm0 7.006c-1.324 0-2.463-1.096-2.463-2.648 0-1.574 1.142-2.647 2.463-2.647 1.324 0 2.464 1.073 2.464 2.648 0 1.562-1.14 2.647-2.464 2.647ZM49.03 23.794v1.85h4.438c-.136 1.036-.479 1.802-1.004 2.327-.65.65-1.654 1.357-3.423 1.357-2.728 0-4.86-2.202-4.86-4.93 0-2.727 2.132-4.929 4.86-4.929 1.472 0 2.545.581 3.341 1.324l1.312-1.311c-1.107-1.06-2.58-1.872-4.643-1.872-3.741 0-6.881 3.047-6.881 6.778 0 3.742 3.137 6.779 6.88 6.779 2.021 0 3.537-.66 4.736-1.905 1.221-1.222 1.608-2.945 1.608-4.336a5.72 5.72 0 0 0-.102-1.152h-6.264c.002-.003.002.02.002.02Zm46.527 1.44c-.366-.981-1.472-2.784-3.74-2.784-2.25 0-4.119 1.77-4.119 4.369 0 2.453 1.85 4.368 4.336 4.368 1.997 0 3.16-1.221 3.639-1.938l-1.483-.994c-.492.73-1.175 1.209-2.146 1.209-.98 0-1.667-.446-2.123-1.324l5.841-2.42c0 .003-.204-.487-.204-.487ZM89.6 26.692c-.046-1.688 1.311-2.545 2.282-2.545.765 0 1.403.376 1.62.924L89.6 26.693Zm-4.745 4.233h1.918V18.091h-1.918v12.835Zm-3.15-7.495h-.069c-.433-.515-1.255-.981-2.305-.981-2.179 0-4.187 1.918-4.187 4.381 0 2.454 1.998 4.349 4.187 4.349 1.037 0 1.872-.47 2.305-.994h.07v.627c0 1.667-.892 2.566-2.329 2.566-1.175 0-1.905-.845-2.202-1.552l-1.667.697c.479 1.152 1.757 2.579 3.867 2.579 2.248 0 4.153-1.324 4.153-4.553V22.71h-1.813v.72h-.01Zm-2.202 6.035c-1.324 0-2.43-1.106-2.43-2.635 0-1.541 1.106-2.658 2.43-2.658 1.311 0 2.328 1.13 2.328 2.658.012 1.53-1.014 2.635-2.328 2.635Zm25.034-11.375h-4.586v12.835h1.918v-4.86h2.671c2.123 0 4.21-1.54 4.21-3.982 0-2.443-2.08-3.993-4.213-3.993Zm.057 6.182h-2.728V19.87h2.728c1.436 0 2.248 1.185 2.248 2.202 0 1.006-.822 2.202-2.248 2.202Zm11.843-1.836c-1.393 0-2.829.617-3.423 1.961l1.7.707c.366-.707 1.037-.947 1.746-.947.994 0 1.998.594 2.021 1.654v.136c-.343-.195-1.096-.492-1.998-.492-1.836 0-3.697 1.004-3.697 2.886 0 1.724 1.505 2.83 3.183 2.83 1.288 0 1.997-.581 2.44-1.255h.069v.994h1.849v-4.917c0-2.29-1.7-3.557-3.89-3.557Zm-.24 7.03c-.628 0-1.506-.308-1.506-1.097 0-.993 1.096-1.37 2.031-1.37.845 0 1.244.182 1.746.433a2.308 2.308 0 0 1-2.271 2.033Zm10.875-6.756-2.202 5.567h-.069l-2.282-5.567h-2.064l3.424 7.782-1.951 4.325h1.997l5.268-12.107h-2.121Zm-17.265 8.215h1.918V18.091h-1.918v12.835Z" fill="#fff"/><path fill-rule="evenodd" clip-rule="evenodd" d="M10.714 7.856c-.297.32-.468.81-.468 1.45v22.706c0 .64.171 1.13.479 1.437l.079.069 12.722-12.722v-.284L10.794 7.787l-.08.07Z" fill="url(#a)"/><path fill-rule="evenodd" clip-rule="evenodd" d="m27.76 25.05-4.244-4.244v-.297l4.243-4.243.093.057 5.019 2.852c1.436.81 1.436 2.146 0 2.966l-5.02 2.852-.092.057Z" fill="url(#b)"/><path fill-rule="evenodd" clip-rule="evenodd" d="m27.851 24.994-4.335-4.336L10.714 33.46c.469.502 1.255.558 2.133.069l15.004-8.535Z" fill="url(#c)"/><path fill-rule="evenodd" clip-rule="evenodd" d="M27.851 16.322 12.848 7.8c-.879-.502-1.668-.433-2.134.069l12.802 12.788 4.335-4.335Z" fill="url(#d)"/><path opacity=".2" fill-rule="evenodd" clip-rule="evenodd" d="m27.76 24.9-14.902 8.467c-.832.479-1.575.446-2.053.01l-.08.08.08.069c.478.432 1.221.468 2.053-.01l15.004-8.523-.102-.092Z" fill="#000"/><path opacity=".12" fill-rule="evenodd" clip-rule="evenodd" d="m32.87 21.992-5.123 2.91.092.092 5.019-2.853c.72-.41 1.073-.948 1.073-1.483-.044.492-.41.958-1.06 1.334Z" fill="#000"/><path opacity=".25" fill-rule="evenodd" clip-rule="evenodd" d="M12.847 7.948 32.87 19.323c.65.366 1.017.845 1.073 1.334 0-.535-.353-1.073-1.073-1.483L12.847 7.8c-1.436-.822-2.601-.135-2.601 1.506v.149c0-1.644 1.165-2.318 2.601-1.506Z" fill="#fff"/><path fill="#000" d="M40.6 4.76h89.32v11.6H40.6z"/><path d="M43.85 11.705h-.588v-.418h.565c.249 0 .45-.036.604-.106a.706.706 0 0 0 .337-.292.864.864 0 0 0 .105-.432.798.798 0 0 0-.472-.74c-.161-.08-.368-.12-.622-.12-.19 0-.363.037-.517.11a.898.898 0 0 0-.367.295.715.715 0 0 0-.136.432h-.656c0-.211.045-.4.133-.568.088-.17.21-.314.364-.432.154-.12.332-.211.533-.275.204-.063.42-.095.646-.095.265 0 .505.03.72.092.216.059.4.147.554.265.154.118.272.264.354.438.081.175.122.377.122.608 0 .17-.04.33-.119.48-.08.15-.192.28-.34.394a1.714 1.714 0 0 1-.53.268 2.339 2.339 0 0 1-.69.096Zm-.588-.29h.588c.279 0 .527.029.745.086.217.056.4.139.55.248.15.108.263.243.34.404.08.159.119.341.119.547 0 .231-.045.436-.136.615a1.28 1.28 0 0 1-.377.456 1.714 1.714 0 0 1-.581.282 2.654 2.654 0 0 1-1.363.013 1.837 1.837 0 0 1-.56-.258 1.348 1.348 0 0 1-.405-.448c-.1-.182-.15-.4-.15-.653h.656c0 .165.045.317.136.455.093.139.22.25.384.333.163.082.353.123.57.123.25 0 .46-.039.633-.116a.92.92 0 0 0 .398-.322.816.816 0 0 0 .139-.466.955.955 0 0 0-.075-.394.67.67 0 0 0-.214-.279.908.908 0 0 0-.35-.16 1.91 1.91 0 0 0-.482-.054h-.565v-.411ZM48.3 9.57l-1.638 4.51h-.67l1.886-4.948h.432l-.01.438Zm1.373 4.51L48.03 9.57l-.01-.438h.432l1.893 4.948h-.673Zm-.085-1.832v.537h-2.78v-.537h2.78Zm4.49-3.116v.537H51.69v4.411h-.653V9.132h3.038Zm2.63 3.008h-1.322v-.534h1.322c.256 0 .463-.04.621-.122a.764.764 0 0 0 .347-.34c.075-.145.112-.31.112-.496 0-.17-.037-.33-.112-.48a.828.828 0 0 0-.346-.36c-.16-.093-.366-.14-.622-.14h-1.17v4.412h-.655V9.132h1.825c.373 0 .69.065.948.194s.454.308.588.537c.133.226.2.486.2.778 0 .317-.067.588-.2.812-.134.224-.33.395-.588.513-.258.116-.575.174-.948.174Zm4.098.299 1.309-3.307h.754l-1.75 4.122c-.05.116-.106.228-.167.337a1.247 1.247 0 0 1-.224.285.974.974 0 0 1-.33.2c-.129.05-.29.075-.482.075a2.18 2.18 0 0 1-.194-.01.812.812 0 0 1-.146-.017l.02-.523c.025.004.074.009.146.013.073.003.126.004.16.004.13 0 .231-.026.306-.078a.6.6 0 0 0 .18-.197c.048-.082.09-.165.13-.248l.288-.656Zm-1.111-3.307 1.376 3.082.163.609-.55.04-1.723-3.731h.734Zm5.471 2.573h-.588v-.418h.564c.25 0 .451-.036.605-.106a.706.706 0 0 0 .337-.292.864.864 0 0 0 .105-.432.798.798 0 0 0-.472-.74c-.161-.08-.368-.12-.622-.12-.19 0-.363.037-.517.11a.898.898 0 0 0-.367.295.715.715 0 0 0-.136.432h-.655c0-.211.044-.4.132-.568.088-.17.21-.314.364-.432.154-.12.332-.211.533-.275.204-.063.42-.095.646-.095.265 0 .505.03.72.092.216.059.4.147.554.265.154.118.272.264.354.438.081.175.122.377.122.608 0 .17-.04.33-.119.48-.08.15-.192.28-.34.394a1.714 1.714 0 0 1-.53.268 2.339 2.339 0 0 1-.69.096Zm-.588-.29h.588c.279 0 .527.029.744.086.218.056.402.139.551.248.15.108.263.243.34.404.08.159.119.341.119.547 0 .231-.045.436-.136.615a1.28 1.28 0 0 1-.377.456 1.714 1.714 0 0 1-.581.282 2.654 2.654 0 0 1-1.363.013 1.837 1.837 0 0 1-.56-.258 1.348 1.348 0 0 1-.405-.448c-.1-.182-.15-.4-.15-.653h.656c0 .165.045.317.136.455.093.139.22.25.384.333.163.082.353.123.57.123.25 0 .46-.039.633-.116a.92.92 0 0 0 .398-.322.816.816 0 0 0 .139-.466.955.955 0 0 0-.075-.394.67.67 0 0 0-.214-.279.909.909 0 0 0-.35-.16 1.91 1.91 0 0 0-.483-.054h-.564v-.411Zm3.888 1.53 2.437-3.813h.656v4.948h-.656v-3.816l-2.437 3.816h-.652V9.132h.652v3.813Zm6.012-3.813v4.948h-.646V9.132h.646Zm1.59 0v.537h-3.823v-.537h3.823Zm1.268 2.015h1.35c.362 0 .668.061.917.184.25.12.438.289.567.506.13.218.194.473.194.765 0 .217-.036.417-.109.598a1.31 1.31 0 0 1-.323.469 1.487 1.487 0 0 1-.526.306c-.209.07-.449.105-.72.105h-1.85V9.132h.656v4.415h1.193c.243 0 .439-.045.588-.133a.83.83 0 0 0 .333-.354 1.053 1.053 0 0 0 0-.92.767.767 0 0 0-.333-.33c-.15-.084-.345-.126-.588-.126h-1.349v-.537Zm6.3 1.798 2.438-3.813h.655v4.948h-.655v-3.816l-2.437 3.816h-.653V9.132h.653v3.813Zm5.802-1.24h-.588v-.418h.564c.25 0 .451-.036.605-.106a.705.705 0 0 0 .337-.292.864.864 0 0 0 .105-.432.797.797 0 0 0-.472-.74c-.161-.08-.369-.12-.622-.12-.19 0-.363.037-.517.11a.897.897 0 0 0-.367.295.714.714 0 0 0-.136.432h-.656c0-.211.044-.4.133-.568.088-.17.21-.314.363-.432.154-.12.332-.211.534-.275.204-.063.419-.095.646-.095.265 0 .505.03.72.092.215.059.4.147.554.265.154.118.272.264.353.438.082.175.123.377.123.608 0 .17-.04.33-.12.48-.078.15-.192.28-.339.394a1.715 1.715 0 0 1-.53.268 2.338 2.338 0 0 1-.69.096Zm-.588-.29h.588c.279 0 .527.029.744.086.218.056.401.139.55.248.15.108.264.243.34.404.08.159.12.341.12.547 0 .231-.046.436-.136.615-.089.18-.215.331-.378.456a1.716 1.716 0 0 1-.58.282 2.654 2.654 0 0 1-1.363.013 1.838 1.838 0 0 1-.561-.258 1.35 1.35 0 0 1-.405-.448c-.1-.182-.15-.4-.15-.653h.657c0 .165.045.317.136.455.093.139.22.25.384.333.163.082.353.123.57.123.25 0 .46-.039.633-.116a.92.92 0 0 0 .397-.322.816.816 0 0 0 .14-.466.957.957 0 0 0-.075-.394.67.67 0 0 0-.214-.279.909.909 0 0 0-.35-.16 1.91 1.91 0 0 0-.483-.054h-.564v-.411Z" fill="#fff"/><defs><linearGradient id="a" x1="22.385" y1="9.061" x2="2.006" y2="14.491" gradientUnits="userSpaceOnUse"><stop stop-color="#00A0FF"/><stop offset=".007" stop-color="#00A1FF"/><stop offset=".26" stop-color="#00BEFF"/><stop offset=".512" stop-color="#00D2FF"/><stop offset=".76" stop-color="#00DFFF"/><stop offset="1" stop-color="#00E3FF"/></linearGradient><linearGradient id="b" x1="34.744" y1="20.658" x2="9.897" y2="20.658" gradientUnits="userSpaceOnUse"><stop stop-color="#FFE000"/><stop offset=".409" stop-color="#FFBD00"/><stop offset=".775" stop-color="orange"/><stop offset="1" stop-color="#FF9C00"/></linearGradient><linearGradient id="c" x1="25.494" y1="23.017" x2="9.134" y2="50.552" gradientUnits="userSpaceOnUse"><stop stop-color="#FF3A44"/><stop offset="1" stop-color="#C31162"/></linearGradient><linearGradient id="d" x1="7.491" y1=".303" x2="14.79" y2="12.601" gradientUnits="userSpaceOnUse"><stop stop-color="#32A071"/><stop offset=".069" stop-color="#2DA771"/><stop offset=".476" stop-color="#15CF74"/><stop offset=".801" stop-color="#06E775"/><stop offset="1" stop-color="#00F076"/></linearGradient></defs></svg>