<svg width="139" height="41" fill="none" xmlns="http://www.w3.org/2000/svg"><path d="M133.848 41.364H4.477A4.887 4.887 0 0 1-.4 36.484V4.993A4.88 4.88 0 0 1 4.477.12h129.371c2.687 0 4.953 2.186 4.953 4.873v31.49c0 2.687-2.266 4.881-4.953 4.881Z" fill="#A6A6A6"/><path d="M137.802 36.485a3.949 3.949 0 0 1-3.953 3.949H4.476a3.954 3.954 0 0 1-3.958-3.95V4.992a3.96 3.96 0 0 1 3.958-3.954h129.372a3.953 3.953 0 0 1 3.953 3.954l.001 31.494Z" fill="#000"/><path d="M30.666 20.52c-.03-3.324 2.721-4.94 2.847-5.016-1.558-2.272-3.973-2.582-4.822-2.607-2.028-.213-3.995 1.214-5.028 1.214-1.054 0-2.645-1.193-4.36-1.158-2.207.034-4.27 1.312-5.403 3.295-2.336 4.045-.594 9.99 1.645 13.26 1.12 1.6 2.428 3.389 4.14 3.326 1.676-.07 2.302-1.068 4.324-1.068 2.004 0 2.591 1.068 4.338 1.028 1.798-.03 2.93-1.609 4.011-3.225 1.294-1.835 1.814-3.643 1.834-3.735-.042-.015-3.492-1.332-3.526-5.315ZM27.366 10.746c.901-1.127 1.518-2.66 1.347-4.216-1.305.058-2.936.902-3.875 2.004-.831.972-1.573 2.564-1.382 4.06 1.466.11 2.97-.739 3.91-1.848ZM54.914 32.603h-2.342l-1.282-4.03H46.83l-1.222 4.03h-2.28l4.418-13.722h2.728l4.44 13.722Zm-4.01-5.721-1.16-3.583c-.124-.366-.353-1.228-.693-2.585h-.041a99.919 99.919 0 0 1-.652 2.585l-1.14 3.583h3.685ZM66.274 27.535c0 1.683-.455 3.013-1.364 3.99-.815.869-1.826 1.303-3.034 1.303-1.303 0-2.24-.468-2.81-1.405h-.04v5.213h-2.199v-10.67c0-1.057-.028-2.143-.081-3.257h1.933l.123 1.569h.04c.734-1.182 1.847-1.772 3.34-1.772 1.167 0 2.141.461 2.92 1.384.782.924 1.172 2.139 1.172 3.645Zm-2.24.08c0-.963-.216-1.756-.651-2.381-.476-.652-1.114-.978-1.914-.978-.542 0-1.035.182-1.475.54-.442.36-.73.832-.865 1.415a2.876 2.876 0 0 0-.103.67v1.65c0 .72.221 1.327.662 1.823.442.496 1.015.744 1.72.744.828 0 1.473-.32 1.934-.957.462-.639.692-1.48.692-2.525ZM77.654 27.535c0 1.683-.454 3.013-1.365 3.99-.813.869-1.825 1.303-3.032 1.303-1.304 0-2.24-.468-2.809-1.405h-.041v5.213h-2.199v-10.67a67.8 67.8 0 0 0-.081-3.257h1.933l.123 1.569h.041c.732-1.182 1.845-1.772 3.339-1.772 1.166 0 2.14.461 2.922 1.384.779.924 1.17 2.139 1.17 3.645Zm-2.24.08c0-.963-.217-1.756-.652-2.381-.475-.652-1.111-.978-1.913-.978-.543 0-1.035.182-1.476.54a2.5 2.5 0 0 0-.864 1.415 2.936 2.936 0 0 0-.102.67v1.65c0 .72.22 1.327.66 1.823.441.495 1.014.744 1.722.744.828 0 1.472-.32 1.933-.957.462-.639.693-1.48.693-2.525ZM90.378 28.756c0 1.167-.406 2.116-1.22 2.85-.893.8-2.138 1.2-3.737 1.2-1.477 0-2.66-.284-3.556-.854l.51-1.832a6.026 6.026 0 0 0 3.177.876c.828 0 1.472-.187 1.935-.56.461-.374.691-.875.691-1.5 0-.557-.19-1.026-.57-1.406-.378-.38-1.01-.735-1.893-1.061-2.403-.896-3.603-2.209-3.603-3.935 0-1.128.42-2.053 1.263-2.773.84-.72 1.96-1.08 3.36-1.08 1.248 0 2.286.217 3.114.651l-.55 1.792c-.773-.42-1.648-.63-2.626-.63-.773 0-1.378.19-1.81.57-.367.339-.55.752-.55 1.242 0 .542.209.99.63 1.344.366.325 1.03.678 1.996 1.059 1.18.475 2.048 1.03 2.606 1.668.555.635.833 1.43.833 2.379ZM97.646 24.36h-2.423v4.803c0 1.222.427 1.832 1.283 1.832.393 0 .719-.034.977-.102l.06 1.67c-.433.162-1.003.243-1.71.243-.867 0-1.546-.265-2.036-.794-.487-.53-.733-1.419-.733-2.667v-4.988h-1.443v-1.65h1.443v-1.811l2.16-.652v2.463h2.422v1.652ZM108.579 27.575c0 1.521-.435 2.77-1.303 3.746-.911 1.006-2.119 1.507-3.626 1.507-1.451 0-2.607-.482-3.469-1.445-.862-.963-1.293-2.179-1.293-3.644 0-1.533.443-2.789 1.333-3.765.888-.978 2.086-1.467 3.592-1.467 1.452 0 2.62.482 3.502 1.446.843.935 1.264 2.143 1.264 3.622Zm-2.281.071c0-.912-.195-1.695-.59-2.348-.46-.79-1.119-1.183-1.973-1.183-.884 0-1.555.395-2.016 1.184-.395.653-.59 1.448-.59 2.389 0 .912.195 1.695.59 2.346.475.79 1.14 1.184 1.996 1.184.84 0 1.499-.402 1.974-1.204.405-.665.609-1.456.609-2.368ZM115.725 24.643c-.218-.04-.45-.061-.693-.061-.773 0-1.371.292-1.792.876-.366.516-.55 1.168-.55 1.954v5.192h-2.197l.021-6.778c0-1.14-.028-2.18-.083-3.116h1.915l.08 1.894h.061c.232-.651.598-1.175 1.099-1.568a2.66 2.66 0 0 1 1.589-.53c.203 0 .387.015.55.04v2.097ZM125.556 27.188c0 .394-.025.726-.08.997h-6.595c.026.978.344 1.725.957 2.24.556.462 1.274.693 2.157.693.977 0 1.867-.156 2.669-.468l.344 1.526c-.936.408-2.042.611-3.317.611-1.534 0-2.739-.452-3.615-1.354-.875-.902-1.313-2.114-1.313-3.633 0-1.492.407-2.735 1.223-3.726.854-1.058 2.008-1.587 3.459-1.587 1.426 0 2.506.53 3.239 1.587.581.84.872 1.88.872 3.114Zm-2.096-.57c.015-.652-.129-1.215-.427-1.69-.38-.611-.965-.917-1.751-.917-.719 0-1.304.298-1.75.896-.366.476-.584 1.046-.651 1.71h4.579ZM50.177 10.44c0 1.214-.364 2.127-1.091 2.74-.673.567-1.63.85-2.87.85-.614 0-1.14-.026-1.58-.08V7.319c.574-.093 1.193-.14 1.86-.14 1.181 0 2.071.256 2.671.77.673.58 1.01 1.41 1.01 2.491Zm-1.14.03c0-.787-.208-1.39-.624-1.81-.417-.42-1.025-.63-1.826-.63-.34 0-.63.022-.87.07v5.04c.132.021.376.03.73.03.826 0 1.465-.23 1.914-.69.45-.46.677-1.13.677-2.01ZM56.218 11.5c0 .748-.213 1.36-.64 1.84-.448.495-1.04.741-1.78.741-.714 0-1.283-.236-1.706-.71-.423-.473-.634-1.07-.634-1.79 0-.753.217-1.37.654-1.85.438-.48 1.025-.72 1.765-.72.714 0 1.287.236 1.721.71.413.46.62 1.053.62 1.78Zm-1.12.035c0-.448-.098-.833-.29-1.153-.227-.388-.55-.582-.97-.582-.434 0-.764.194-.99.582-.194.32-.29.711-.29 1.173 0 .449.097.833.29 1.154.233.388.56.581.98.581.412 0 .736-.197.97-.591.2-.327.3-.715.3-1.164ZM64.318 9.11l-1.52 4.861h-.99l-.63-2.11c-.16-.528-.29-1.051-.391-1.571h-.02a11.481 11.481 0 0 1-.39 1.57l-.67 2.111h-1.001l-1.43-4.86h1.11l.55 2.31c.133.547.242 1.067.33 1.56h.02c.08-.406.213-.924.4-1.55l.69-2.32h.881l.66 2.27c.16.555.29 1.088.39 1.601h.03c.074-.5.184-1.033.33-1.6l.59-2.27h1.061V9.11ZM69.92 13.97h-1.08v-2.784c0-.857-.326-1.286-.98-1.286-.32 0-.579.117-.78.353-.199.236-.3.515-.3.833v2.883H65.7V10.5c0-.427-.014-.89-.04-1.391h.95l.05.76h.03c.126-.236.314-.431.56-.587.293-.181.62-.273.98-.273.453 0 .83.146 1.13.44.374.36.56.897.56 1.61v2.912ZM72.9 13.97h-1.08V6.88h1.08v7.09ZM79.263 11.5c0 .748-.214 1.36-.64 1.84-.448.495-1.042.741-1.782.741-.714 0-1.282-.236-1.705-.71-.423-.473-.634-1.07-.634-1.79 0-.753.218-1.37.655-1.85.437-.48 1.025-.72 1.764-.72.714 0 1.287.236 1.722.71.412.46.62 1.053.62 1.78Zm-1.122.035c0-.448-.097-.833-.29-1.153-.226-.388-.55-.582-.968-.582-.435 0-.765.194-.991.582-.194.32-.29.711-.29 1.173 0 .449.097.833.29 1.154.234.388.56.581.98.581.413 0 .736-.197.969-.591.2-.327.3-.715.3-1.164ZM84.492 13.97h-.97l-.08-.559h-.03c-.333.447-.806.67-1.42.67-.46 0-.83-.147-1.11-.44a1.38 1.38 0 0 1-.38-.99c0-.594.247-1.046.745-1.36.497-.313 1.196-.467 2.096-.46v-.09c0-.64-.336-.96-1.01-.96-.479 0-.901.12-1.266.36l-.22-.71c.452-.28 1.01-.42 1.667-.42 1.27 0 1.908.67 1.908 2.01v1.79c0 .487.023.873.07 1.16ZM83.37 12.3v-.75c-1.192-.02-1.788.307-1.788.98 0 .254.068.444.207.57.14.127.317.19.528.19.237 0 .46-.075.661-.224a.92.92 0 0 0 .392-.766ZM90.632 13.97h-.959l-.05-.78h-.03c-.306.594-.828.891-1.561.891-.586 0-1.074-.23-1.46-.69-.387-.46-.58-1.056-.58-1.79 0-.786.21-1.424.63-1.91.407-.454.906-.68 1.5-.68.653 0 1.11.219 1.37.66h.02V6.88h1.082v5.781c0 .474.012.91.038 1.31Zm-1.12-2.049v-.81a1.23 1.23 0 0 0-.42-.995 1.062 1.062 0 0 0-.723-.265c-.403 0-.719.16-.95.48-.23.32-.347.73-.347 1.23 0 .48.11.87.332 1.17.234.32.55.48.944.48.355 0 .639-.133.854-.4.208-.247.31-.544.31-.89ZM99.874 11.5c0 .748-.213 1.36-.64 1.84-.447.495-1.04.741-1.78.741-.713 0-1.281-.236-1.706-.71-.423-.473-.634-1.07-.634-1.79 0-.753.217-1.37.654-1.85.438-.48 1.025-.72 1.767-.72.712 0 1.287.236 1.72.71.412.46.62 1.053.62 1.78Zm-1.12.035c0-.448-.096-.833-.29-1.153-.227-.388-.549-.582-.97-.582-.433 0-.762.194-.99.582-.194.32-.29.711-.29 1.173 0 .449.097.833.29 1.154.234.388.56.581.98.581.413 0 .738-.197.97-.591.2-.327.3-.715.3-1.164ZM105.685 13.97h-1.08v-2.784c0-.857-.326-1.286-.98-1.286a.972.972 0 0 0-.78.353c-.2.236-.3.515-.3.833v2.883h-1.082V10.5c0-.427-.012-.89-.038-1.391h.949l.05.76h.03c.127-.236.315-.431.56-.587.294-.181.621-.273.981-.273.452 0 .83.146 1.13.44.374.36.56.897.56 1.61v2.912ZM112.957 9.92h-1.19v2.36c0 .6.212.9.63.9.194 0 .355-.016.482-.05l.028.82c-.214.08-.494.12-.839.12-.427 0-.759-.13-1-.39-.241-.259-.36-.696-.36-1.31V9.92h-.711v-.81h.711v-.89l1.058-.32v1.209h1.19v.81h.001ZM118.678 13.97h-1.082v-2.763c0-.87-.326-1.307-.978-1.307-.501 0-.844.253-1.031.758a1.355 1.355 0 0 0-.051.389v2.923h-1.079V6.88h1.079v2.93h.021c.34-.534.828-.8 1.46-.8.447 0 .817.147 1.111.44.366.366.55.91.55 1.63v2.89ZM124.579 11.31c0 .194-.015.357-.041.49h-3.24c.014.48.169.846.469 1.1.274.227.628.34 1.061.34.479 0 .917-.076 1.31-.23l.17.751c-.461.2-1.004.3-1.632.3-.752 0-1.345-.222-1.774-.665-.431-.443-.645-1.038-.645-1.785 0-.733.199-1.343.6-1.83.419-.52.985-.78 1.7-.78.699 0 1.23.26 1.589.78.289.412.433.923.433 1.53Zm-1.031-.28a1.453 1.453 0 0 0-.21-.83c-.187-.3-.473-.45-.86-.45-.352 0-.64.146-.86.44a1.638 1.638 0 0 0-.32.84h2.25Z" fill="#fff"/><path fill="#000" d="M40.201 4.76h89.32v12.76h-89.32z"/><path d="M46.705 11.953h.58c.339 0 .602.07.793.21.19.14.285.35.285.626a.83.83 0 0 1-.126.462.822.822 0 0 1-.36.296c-.154.067-.34.101-.557.101a1.42 1.42 0 0 1-.547-.098.962.962 0 0 1-.374-.265.671.671 0 0 1-.16-.37h-.588c.014.237.089.453.225.645.136.19.325.341.567.452.245.111.535.167.87.167.338 0 .632-.058.884-.174.253-.115.45-.277.588-.486.14-.208.21-.453.21-.734a1.084 1.084 0 0 0-.513-.935 1.27 1.27 0 0 0-.544-.183v-.034c.177-.031.332-.093.466-.183a.953.953 0 0 0 .32-.357c.077-.147.115-.319.115-.513 0-.227-.059-.434-.177-.622a1.206 1.206 0 0 0-.516-.445 1.863 1.863 0 0 0-.826-.167c-.342 0-.629.06-.86.18-.229.12-.402.275-.52.466-.118.19-.18.39-.187.601h.595a.686.686 0 0 1 .136-.357.864.864 0 0 1 .333-.261c.14-.068.307-.102.5-.102.26 0 .474.07.642.21a.678.678 0 0 1 .251.551.72.72 0 0 1-.255.581c-.167.14-.388.21-.662.21h-.588v.528Zm4.282 2.185c.176 0 .33-.024.462-.072.131-.05.242-.115.333-.197a1.18 1.18 0 0 0 .228-.265h.027v.476h.591v-2.44c0-.292-.06-.526-.183-.7a1.026 1.026 0 0 0-.49-.377 1.873 1.873 0 0 0-.672-.116c-.2 0-.379.022-.538.065-.158.04-.294.102-.407.183a.881.881 0 0 0-.269.296c-.063.115-.102.25-.115.4h.594a.624.624 0 0 1 .116-.22.542.542 0 0 1 .224-.15c.098-.036.222-.054.374-.054.229 0 .41.054.544.163.136.109.204.278.204.507v.353h-.935c-.41 0-.723.098-.938.292a.973.973 0 0 0-.32.758c0 .33.108.597.324.799.217.2.5.299.846.299Zm.17-.517a.87.87 0 0 1-.496-.146c-.143-.097-.215-.25-.215-.455a.55.55 0 0 1 .157-.401c.106-.107.28-.16.523-.16h.884v.398a.695.695 0 0 1-.116.394.817.817 0 0 1-.302.272.932.932 0 0 1-.435.098Zm4.978-2.617v-.5H53.89v3.576h.615v-3.075h1.631Zm2.577 3.13c.283 0 .528-.062.737-.187.208-.124.368-.3.48-.53.112-.228.169-.502.169-.819v-.615c0-.315-.056-.587-.166-.815a1.237 1.237 0 0 0-.473-.53 1.368 1.368 0 0 0-.727-.188c-.13 0-.25.015-.364.045a1.181 1.181 0 0 0-.312.122.875.875 0 0 0-.394.455h-.031v-.57h-.592v4.764h.615V13.55h.031a.966.966 0 0 0 .231.32c.098.086.213.151.347.197.136.045.285.067.449.067Zm-.126-.526a.95.95 0 0 1-.486-.123.866.866 0 0 1-.33-.34 1.077 1.077 0 0 1-.116-.506v-.622c0-.215.037-.4.11-.554a.834.834 0 0 1 .315-.36.925.925 0 0 1 .49-.126c.195 0 .36.044.496.133a.822.822 0 0 1 .31.384c.07.168.105.371.105.612v.38c0 .238-.036.44-.106.608a.832.832 0 0 1-.306.381.846.846 0 0 1-.482.133Zm5.386-3.103h-.652l-.948 2.974h-.028l-.944-2.974h-.683l1.311 3.623-.037.132c-.054.202-.137.346-.248.432-.111.088-.268.132-.47.132-.035 0-.082-.002-.139-.006a81.402 81.402 0 0 1-.122-.01v.495c.045.01.102.016.17.02.068.008.13.011.184.011.31 0 .564-.08.76-.241.198-.161.367-.432.507-.812l.075-.194a1480.886 1480.886 0 0 0 .935-2.64l.33-.942Zm2.046 3.11c-.174 0-.317-.024-.428-.072a.62.62 0 0 1-.364-.438h-.601a1 1 0 0 0 .166.492c.102.16.254.29.456.391.204.102.463.153.778.153.412 0 .745-.098.999-.295.254-.2.38-.457.38-.772a.818.818 0 0 0-.098-.411.764.764 0 0 0-.268-.282.989.989 0 0 0-.378-.143v-.027a.758.758 0 0 0 .551-.401.757.757 0 0 0 .078-.343.88.88 0 0 0-.166-.534 1.047 1.047 0 0 0-.46-.357 1.668 1.668 0 0 0-.679-.129c-.265 0-.495.048-.69.143-.195.093-.347.22-.459.384-.108.163-.17.346-.183.55h.602a.592.592 0 0 1 .333-.472.888.888 0 0 1 .397-.078c.206 0 .373.045.5.136.129.09.193.22.193.39a.48.48 0 0 1-.078.276.508.508 0 0 1-.23.18.932.932 0 0 1-.365.065h-.418v.475h.415c.245 0 .438.047.581.14a.462.462 0 0 1 .214.414.48.48 0 0 1-.21.415c-.139.1-.328.15-.568.15Zm4.765.465h.598v-3.575h-.564l-1.744 2.627h-.034v-2.627h-.598v3.575h.564l1.744-2.627h.034v2.627Zm4.384-3.075v-.5h-2.943v.5h1.162v3.075H74v-3.075h1.166Zm2.022 1.202c.238 0 .426.062.564.184.14.122.21.289.21.5 0 .208-.07.376-.21.503-.138.127-.325.19-.56.19h-.575v-1.377h.57Zm-1.183 1.873h1.213c.415 0 .745-.106.99-.32.246-.215.37-.502.37-.863 0-.364-.124-.653-.37-.866-.245-.213-.575-.32-.99-.32h-.598v-1.206h-.615v3.575Zm7.426 0h.598v-3.575h-.564l-1.744 2.627h-.034v-2.627h-.598v3.575h.564l1.744-2.627h.034v2.627Zm3.031-.466c-.174 0-.317-.023-.428-.07a.62.62 0 0 1-.364-.44h-.601a1 1 0 0 0 .166.494c.102.158.254.288.456.39.204.102.463.153.778.153.412 0 .745-.098.999-.295.254-.2.38-.457.38-.772a.818.818 0 0 0-.098-.411.764.764 0 0 0-.268-.282.989.989 0 0 0-.378-.143v-.027a.758.758 0 0 0 .551-.401.757.757 0 0 0 .078-.343.88.88 0 0 0-.166-.534 1.047 1.047 0 0 0-.46-.357 1.668 1.668 0 0 0-.679-.129c-.265 0-.495.048-.69.143-.195.093-.348.22-.459.384-.108.163-.17.346-.183.55h.602a.592.592 0 0 1 .333-.472.888.888 0 0 1 .397-.078c.206 0 .373.045.5.136.129.09.193.22.193.39a.48.48 0 0 1-.078.276.508.508 0 0 1-.23.18.932.932 0 0 1-.364.065h-.419v.475h.415c.245 0 .439.047.581.14a.462.462 0 0 1 .214.414.48.48 0 0 1-.21.415c-.139.1-.328.15-.568.15Z" fill="#fff"/></svg>