<svg width="164" height="164" viewBox="0 0 164 164" fill="none" xmlns="http://www.w3.org/2000/svg">
<path fill-rule="evenodd" clip-rule="evenodd" d="M157.915 77.984H135.091C135.16 75.528 135.16 73.2084 135.091 71.0934L135.023 68.7056C135.023 68.3645 134.955 68.0234 134.75 67.7505C134.613 67.4776 134.34 67.2047 134.066 67L132.085 65.7038C131.811 65.4991 131.538 65.3627 131.265 65.2262C131.401 66.7271 131.47 68.2963 131.538 69.8654V69.9336V70.0019V71.2299C131.538 72.7308 131.538 74.3 131.538 75.8009V76.0738C131.538 76.6878 131.538 77.37 131.538 77.984H34.5048C34.4365 75.7327 34.4365 73.4813 34.4365 71.2299V69.9336L34.5048 69.8654C34.5048 69.729 34.5048 69.6607 34.5048 69.5925C34.5048 69.5243 34.5048 69.3879 34.5048 69.3196C34.5048 69.2514 34.5048 69.1832 34.5048 69.1832V69.115C34.5048 69.0467 34.5048 69.0467 34.5048 68.9785V68.7738V68.6374C34.5048 68.5009 34.5048 68.4327 34.5048 68.2963C34.5048 68.228 34.5048 68.1598 34.5048 68.0234C34.5048 67.4776 34.5048 66.5225 34.5048 65.2944C34.5048 65.0898 34.5048 64.8851 34.5048 64.6804C33.8898 65.0898 33.3431 65.4991 32.7281 65.9084L30.8831 67.2047C30.6098 67.4094 30.4048 67.614 30.2681 67.9552C30.1315 68.2963 30.0631 68.5692 29.9948 68.9103L29.9265 71.1617C29.9265 73.2766 29.9265 75.5962 30.0631 78.0523H6.07812V102.749H34.0948C35.1198 105.615 36.4181 108.958 37.1015 110.663C41.2698 120.487 49.8115 129.834 49.8115 129.834C58.5581 139.112 68.3298 147.299 78.8531 154.395L81.2448 155.964C81.5865 156.168 81.9965 156.305 82.4065 156.305C82.8165 156.305 83.2265 156.168 83.5681 155.964L86.0281 154.463C96.3465 147.913 108.373 138.908 116.778 129.834C116.778 129.834 124.226 120.624 127.233 115.302C129.556 111.277 131.128 106.365 132.153 102.749H157.846L157.915 77.984ZM121.493 117.349C112.815 131.813 98.5331 142.319 84.4565 151.12L83.0215 152.007L81.5865 151.052C67.7148 141.91 53.2965 131.267 44.6181 116.872C41.9531 112.437 39.8348 107.661 38.2631 102.681H127.848C126.345 107.866 124.226 112.71 121.493 117.349Z" />
<path d="M38.332 102.749C39.8354 107.73 42.022 112.505 44.687 116.94C53.3654 131.335 67.7837 142.046 81.6554 151.12L83.0904 152.075L84.5254 151.188C98.5337 142.319 112.884 131.813 121.562 117.417C124.295 112.846 126.482 107.934 127.985 102.817L38.332 102.749Z" fill="white"/>
<path d="M131.603 77.9839C131.603 77.3017 131.603 76.5512 131.603 75.8008C131.603 74.2999 131.603 72.7307 131.603 71.2298V70.0018C131.603 69.9335 131.603 69.8653 131.603 69.8653C131.398 63.2476 130.919 56.6299 127.708 54.2421L127.571 54.1057C126.204 52.2636 124.154 51.2403 122.583 50.6262L122.104 49.6029C122.309 48.9889 122.378 48.3066 122.309 47.6244C122.309 47.5562 122.309 47.4197 122.309 47.3515V47.2151C122.309 46.9422 122.309 46.601 122.241 46.1917V46.0553C122.241 45.7824 122.309 45.4412 122.378 45.0319C122.514 44.3497 122.651 43.6674 122.856 43.0534V42.9852C123.266 41.5525 123.744 39.9151 123.539 38.0049V37.8684V37.6637C123.539 37.5273 123.608 37.3226 123.608 37.1862L123.676 36.8451C124.086 34.1161 124.633 30.0227 122.309 27.2255C120.874 25.5199 118.756 24.3601 116.159 23.8826L115.544 23.2003V22.9274C115.203 22.8592 114.861 22.8592 114.519 22.8592C113.016 22.9274 111.513 23.1321 110.078 23.5414L109.258 23.2003C106.593 23.8826 103.928 26.1339 102.493 27.4302C102.424 27.4984 102.288 27.6349 102.288 27.6349L102.219 27.7031L102.083 27.8395C101.809 28.1124 101.604 28.3171 101.399 28.59C99.691 30.6367 98.9393 33.9114 99.3493 37.2544C99.486 38.2778 99.7593 39.3011 100.169 40.2562L100.306 40.5974C100.306 40.6656 100.374 40.802 100.306 40.8703C100.306 40.9385 100.238 41.0749 100.169 41.1432C100.101 41.2114 100.033 41.2796 99.9643 41.3478C99.896 41.416 99.7593 41.416 99.691 41.416H99.4176C99.3493 41.416 99.281 41.416 99.2126 41.416H99.076L98.5976 41.2114C97.9826 40.5974 97.1626 40.188 96.2743 40.1198C95.4543 40.0516 94.8393 39.7105 93.746 38.2095C93.4043 37.732 92.9943 37.1862 92.516 36.6404C92.4476 36.5722 92.3793 36.4357 92.3793 36.2993C92.311 35.8217 92.4476 35.4124 92.6526 35.003C93.0626 34.2526 93.4726 33.4339 93.746 32.547L94.0193 32.1376C95.6593 30.9778 96.206 29.6133 96.411 28.6582C96.616 27.7713 96.6843 26.8162 96.616 25.861L96.7526 25.247C96.9576 24.9741 97.0943 24.633 97.231 24.2237C97.436 23.5414 97.3676 22.8592 97.231 22.177C97.026 21.4947 96.6843 20.8807 96.206 20.4031L96.1376 20.3349C95.9326 20.1303 95.796 19.9938 95.591 19.8574L95.2493 19.3798C94.6343 16.3779 93.6776 13.9219 92.3793 12.6256L92.2426 12.3528C91.6276 10.7836 90.1926 10.2378 89.441 9.8967L89.3726 9.82847L88.9626 9.35091C88.5526 8.25933 87.5276 7.57709 85.8876 7.23597C85.6826 7.16775 85.2726 7.09953 85.136 7.0313C84.521 6.82663 83.8376 6.69019 83.1543 6.69019C82.4026 6.69019 81.651 6.82663 80.8993 7.09953C80.831 7.09953 80.6943 7.16775 80.626 7.16775H80.5576C79.9426 7.16775 79.2593 7.37242 78.781 7.71354C78.2343 8.05466 77.8243 8.60045 77.551 9.14624L77.0726 9.55558C75.9793 9.8967 74.6126 10.7154 74.066 11.9434L73.861 12.2163C73.5876 12.421 73.3826 12.6939 73.1776 12.9668L73.1093 13.035C71.6743 14.7406 70.8543 16.8555 70.7176 19.1069L70.4443 19.7209C69.146 20.7443 68.2576 22.7228 69.146 24.4283C69.2143 24.4966 69.2826 24.633 69.2826 24.7012L69.4193 25.3835C68.8043 27.5666 69.8976 30.2274 71.8793 31.5918L72.221 32.0694C72.4943 33.0928 72.9043 34.1161 73.451 35.003L73.3826 35.8899C73.041 36.3675 72.6993 36.8451 72.426 37.3226V37.3908C72.221 37.732 72.016 38.0731 71.7426 38.4142C71.6743 38.4824 71.606 38.6189 71.5376 38.6871L70.991 39.0282C70.786 39.0282 70.6493 39.0964 70.4443 39.1647L70.1026 39.2329C68.941 39.5058 67.916 40.0516 67.0276 40.802L66.7543 41.0067L66.6176 41.0749C66.481 41.1432 66.276 41.2114 66.071 41.2796C65.866 41.3478 65.661 41.416 65.3876 41.4843L64.2943 41.9618C64.226 42.0301 64.0893 42.0301 64.021 41.9618C63.9526 41.9618 63.8843 41.8936 63.816 41.8254C63.7476 41.7572 63.7476 41.6889 63.7476 41.5525C63.7476 41.4843 63.7476 41.3478 63.816 41.2796L64.431 40.3245C64.7043 39.6422 64.9093 38.8918 65.046 38.1413C65.251 36.9133 65.3876 35.3441 65.456 34.1843V34.0479C65.5926 32.3423 65.046 30.7049 63.9526 29.4087C63.8843 29.3405 63.7476 29.204 63.6793 28.9993L63.611 28.9311C62.996 27.976 62.176 27.1573 61.356 26.4751C58.9643 24.633 54.7276 22.6545 51.106 22.6545C50.8326 22.6545 50.5593 22.6545 50.286 22.7228L49.876 22.791L49.466 22.9274C47.211 23.8826 45.366 25.4517 44.136 27.5666L43.6576 27.9078C42.2226 28.3853 40.241 29.3405 39.011 31.1143C38.5326 31.8647 38.2593 32.6834 38.1226 33.5021C38.0543 34.389 38.1226 35.2077 38.396 36.0264C38.6693 36.7768 39.1476 37.3908 39.6943 37.9366C40.3093 38.4824 40.9926 38.8235 41.7443 39.0282L42.291 39.574L42.4276 39.9151V40.188V40.4609C42.4276 41.0067 42.4276 41.4843 42.5643 42.0301C42.701 42.7123 42.906 43.3263 43.1793 43.9403L43.2476 44.2132C43.3843 46.0553 43.5893 47.2833 43.9993 48.1702C44.0676 48.3066 44.136 48.5113 44.136 48.6478C44.136 48.7842 44.136 48.9889 44.0676 49.1253C43.9993 49.33 43.8626 49.5347 43.6576 49.6711C43.521 49.8076 43.316 49.944 43.0426 49.944C42.1543 50.1487 41.3343 50.4898 40.5826 50.9674L40.3776 51.1038L40.3093 51.172H40.241C37.986 52.9458 36.346 55.3337 35.3893 58.0626L35.321 58.472H35.2526C34.501 62.3607 34.5693 67.0681 34.6376 68.0233C34.6376 68.1597 34.6376 68.2962 34.6376 68.3644V68.5008V68.7055C34.6376 68.842 34.6376 69.1831 34.5693 69.5924L34.501 69.6606V70.9569C34.4326 73.2083 34.501 75.4597 34.5693 77.711L131.603 77.9839Z" fill="white"/>
<path d="M104.135 29.3403L104.067 29.4084C104.067 29.3403 104.135 29.3403 104.135 29.3403Z" />
<path d="M104.135 29.3403L104.067 29.4084C104.067 29.3403 104.135 29.3403 104.135 29.3403Z" />
<path d="M104.135 29.3403L104.067 29.4084C104.067 29.3403 104.135 29.3403 104.135 29.3403Z" />
<path d="M19.8159 81.9409L16.6042 88.6951H16.4676V81.9409H13.3242V98.3146H16.4676V91.5605H16.6042L19.8159 98.3146H23.2326L19.3376 90.1278L23.2326 81.9409H19.8159Z" fill="black"/>
<path d="M23.5742 98.2463H26.7859L30.0659 84.8062H30.8176V98.2463H33.8926V81.8726H27.6059L23.5742 98.2463Z" fill="black"/>
<path d="M41.4769 89.4454C41.4769 89.65 41.4086 89.65 41.2719 89.65H38.6069C38.4019 89.65 38.4019 89.5818 38.4019 89.4454V81.9408H35.2586V90.5369C35.2586 90.8098 35.3269 91.0827 35.3953 91.2874C35.4636 91.5603 35.6686 91.765 35.8053 91.9014C36.0103 92.1061 36.2153 92.2425 36.4886 92.3108C36.7619 92.379 36.9669 92.4472 37.2403 92.4472H40.5203C40.8619 92.4472 41.1353 92.379 41.4086 92.1743L41.4769 92.1061V95.1079C41.4769 95.3126 41.4086 95.3126 41.2719 95.3126H35.2586V98.178H42.6386C42.9119 98.178 43.1853 98.1098 43.3903 98.0415C43.6636 97.9733 43.8686 97.7687 44.0736 97.6322C44.2786 97.4275 44.4153 97.2229 44.4836 96.95C44.5519 96.6771 44.6203 96.4724 44.6203 96.1995V81.8725H41.5453V89.4454H41.4769Z" fill="black"/>
<path d="M53.2943 87.6717H49.0576V84.8063H54.866V81.9409H45.9143V98.3146H53.2943C53.5676 98.3146 53.841 98.2464 54.046 98.1782C54.3193 98.1099 54.5243 97.9053 54.7293 97.7688C54.9343 97.5642 55.071 97.3595 55.1393 97.0866C55.2076 96.8137 55.276 96.609 55.276 96.3361V89.7184C55.276 89.4455 55.2076 89.1726 55.1393 88.968C55.071 88.6951 54.866 88.4904 54.7293 88.2857C54.5243 88.0811 54.3193 87.9446 54.046 87.8764C53.841 87.7399 53.5676 87.6717 53.2943 87.6717ZM49.0576 95.381V90.5371H51.996C52.201 90.5371 52.201 90.6053 52.201 90.7418V95.1763C52.201 95.381 52.1326 95.381 51.996 95.381H49.0576Z" fill="black"/>
<path d="M70.1769 93.1294L67.4436 81.9408H62.9336V98.3145H66.0769V88.4902L68.4686 98.3145H71.9536L74.3453 88.4902V98.2462H77.4886V81.8725H72.9786L70.1769 93.1294Z" fill="black"/>
<path d="M82.2709 81.9409L78.2392 98.3146H81.4509L82.3392 94.767H85.8925L86.7809 98.3146H89.9925L85.9609 81.9409H82.2709ZM85.2092 91.9016H83.0225L84.1159 87.3988L85.2092 91.9016Z" fill="black"/>
<path d="M93.9578 95.1763V85.011C93.9578 84.8063 94.0261 84.8063 94.1628 84.8063H98.8778V81.9409H92.8645C92.5911 81.9409 92.3178 82.0091 92.1128 82.0774C91.8395 82.1456 91.6345 82.3503 91.4295 82.4867C91.2245 82.6914 91.0878 82.8961 91.0195 83.1007C90.9511 83.3736 90.8828 83.5783 90.8828 83.8512V96.1997C90.8828 96.4726 90.9511 96.7455 91.0195 96.9502C91.0878 97.223 91.2928 97.4277 91.4295 97.6324C91.6345 97.8371 91.8395 97.9735 92.1128 98.0417C92.3861 98.11 92.5911 98.1782 92.8645 98.1782H99.3561V95.3128H94.2311C94.0261 95.4492 93.9578 95.381 93.9578 95.1763Z" fill="black"/>
<path d="M100.648 84.8063H103.518V98.2464H106.662V84.8063H109.532V81.9409H100.648V84.8063Z" fill="black"/>
<path d="M114.044 91.5605H118.485V88.6951H114.044V84.8063H118.964V81.9409H110.969V98.3146H119.442V95.4492H114.112V91.5605H114.044Z" fill="black"/>
<path d="M128.118 81.9409H120.738V98.3146H123.813V92.5838H128.05C128.323 92.5838 128.597 92.5156 128.802 92.4474C129.075 92.3791 129.28 92.1745 129.485 92.038C129.69 91.8334 129.827 91.6287 129.895 91.424C129.963 91.1511 130.032 90.9464 130.032 90.6736V83.9194C130.032 83.6465 129.963 83.3736 129.895 83.1689C129.827 82.8961 129.622 82.6914 129.485 82.5549C129.28 82.3503 129.075 82.2138 128.802 82.1456C128.597 82.0091 128.392 81.9409 128.118 81.9409ZM127.025 85.011V89.4455C127.025 89.6502 126.957 89.6502 126.82 89.6502H123.882V84.8063H126.82C126.957 84.8063 127.025 84.8745 127.025 85.011Z" fill="black"/>
<path d="M138.851 81.9409H133.521C133.248 81.9409 132.974 82.0091 132.769 82.0774C132.496 82.1456 132.291 82.3503 132.086 82.4867C131.881 82.6914 131.744 82.8961 131.676 83.1007C131.608 83.3736 131.539 83.5783 131.539 83.8512V96.1997C131.539 96.4726 131.608 96.7455 131.676 96.9502C131.744 97.223 131.949 97.4277 132.086 97.6324C132.291 97.8371 132.496 97.9735 132.769 98.0417C133.043 98.11 133.248 98.1782 133.521 98.1782H138.851C139.124 98.1782 139.398 98.11 139.603 98.0417C139.876 97.9735 140.081 97.7688 140.286 97.6324C140.491 97.4277 140.628 97.223 140.696 96.9502C140.764 96.6773 140.833 96.4726 140.833 96.1997V83.9194C140.833 83.6465 140.764 83.3736 140.696 83.1689C140.628 82.8961 140.423 82.6914 140.286 82.5549C140.081 82.3503 139.876 82.2138 139.603 82.1456C139.329 82.0091 139.056 81.9409 138.851 81.9409ZM134.546 95.1763V85.011C134.546 84.8063 134.614 84.8063 134.751 84.8063H137.416C137.621 84.8063 137.621 84.8745 137.621 85.011V95.1763C137.621 95.381 137.553 95.381 137.416 95.381H134.751C134.614 95.381 134.546 95.381 134.546 95.1763Z" fill="black"/>
<path d="M151.012 90.4005C150.876 90.2641 150.739 90.1959 150.602 90.1277C150.739 90.0594 150.876 89.923 151.012 89.8548C151.149 89.7183 151.286 89.5819 151.354 89.3772C151.422 89.1725 151.491 89.0361 151.491 88.8314V83.9193C151.491 83.6464 151.422 83.3735 151.354 83.1688C151.286 82.8959 151.081 82.6913 150.944 82.5548C150.739 82.3502 150.534 82.2137 150.261 82.1455C149.987 82.0773 149.782 82.009 149.509 82.009H142.266V98.3827H149.646C149.919 98.3827 150.192 98.3145 150.397 98.2463C150.671 98.178 150.876 97.9734 151.081 97.8369C151.286 97.6322 151.422 97.4276 151.491 97.1547C151.559 96.8818 151.627 96.6771 151.627 96.4042V91.4239C151.627 91.2192 151.559 91.0146 151.491 90.8781C151.354 90.6734 151.217 90.537 151.012 90.4005ZM145.272 88.695V84.8062H148.074C148.279 84.8062 148.279 84.8744 148.279 85.0109V88.4221C148.279 88.6267 148.211 88.6267 148.074 88.6267L145.272 88.695ZM145.272 95.3809V91.4921H148.142C148.347 91.4921 148.347 91.5603 148.347 91.6968V95.108C148.347 95.3126 148.279 95.3126 148.142 95.3126L145.272 95.3809Z" fill="black"/>
<path d="M41.2698 102.749C41.7481 104.318 42.2264 105.683 42.7048 106.843C49.4014 123.421 62.5214 135.224 83.2264 148.937C104.888 135.292 118.145 123.012 124.5 105.274C124.773 104.455 125.046 103.636 125.32 102.817L41.2698 102.749Z" fill="#231F20"/>
<path d="M129.075 77.9838C129.144 76.0735 129.144 74.095 129.144 71.9801C129.144 71.9118 129.144 71.8436 129.144 71.7754C129.075 69.7969 129.28 57.4484 125.795 55.7428C124.77 54.1055 123.062 53.2186 121.422 52.6045C121.354 52.5363 121.217 52.5363 121.149 52.5363C121.08 52.5363 120.944 52.6045 120.875 52.6045C120.807 52.6728 120.739 52.741 120.739 52.8092C120.67 52.8774 120.67 52.9457 120.67 53.0821C120.739 53.969 120.807 54.8559 120.807 55.6746C120.807 56.8344 120.534 62.0876 120.124 62.7699C119.372 64.0661 119.714 63.0428 119.714 63.0428L119.782 62.0876C119.85 61.0643 119.85 60.0409 119.85 59.0176C119.782 57.8578 119.509 56.7662 119.509 55.8111C119.44 53.7644 119.577 52.127 119.03 51.9223C118.825 51.8541 118.825 51.513 118.62 51.3765C117.8 50.9672 117.185 50.4896 117.117 49.7392C117.117 49.6027 117.117 49.4663 117.185 49.3298C117.254 49.1934 117.39 49.1251 117.527 49.1251L118.074 49.0569C119.577 48.7158 119.85 48.5794 119.782 47.3513C119.782 47.0102 119.782 46.6009 119.714 45.9186C119.714 45.3046 119.782 44.7588 119.85 44.1448C120.26 41.8934 121.285 39.9832 121.08 37.7318C121.08 37.5953 121.012 37.4589 121.012 37.4589C121.285 35.0711 122.379 30.773 120.465 28.4534C118.962 26.6795 116.57 25.8609 113.974 25.7926C114.862 25.3833 115.75 25.1104 115.75 25.1104C113.837 24.7693 111.035 25.5197 109.464 26.0655C109.942 25.588 110.352 25.2469 110.42 25.1786C108.097 25.6562 105.295 28.044 104.407 28.9309C104.339 28.9992 104.339 28.9992 104.27 29.0674L104.202 29.1356L104.134 29.2038C103.929 29.4085 103.792 29.5449 103.587 29.7496C101.127 32.6832 101.81 38.8234 103.929 40.2561C104.065 40.3925 104.202 40.529 104.27 40.7336C104.339 40.9383 104.407 41.0747 104.339 41.2794C104.134 44.6906 104.407 44.0084 105.432 44.5541C105.569 44.6224 105.705 44.827 105.842 44.9635C105.91 45.1682 105.979 45.3046 105.91 45.5093L105.637 47.2831C105.637 47.4878 105.637 47.6924 105.705 47.8289C105.91 48.3065 106.389 49.3298 106.867 50.7625C107.004 51.1036 107.55 51.6494 107.55 52.0588C107.619 52.9457 107.687 53.7643 107.892 54.6513C107.96 55.1288 108.302 57.312 108.37 57.926C108.439 58.4036 108.985 58.8811 108.917 59.3587C108.644 61.0643 108.917 63.9979 108.917 63.9979C108.917 63.9979 108.985 64.8848 110.215 65.0213C111.445 65.1577 111.65 65.7035 111.445 66.1811C111.309 66.5222 110.489 66.2493 109.805 65.9082C109.737 65.8399 109.6 65.8399 109.532 65.8399C109.464 65.8399 109.327 65.8399 109.259 65.9082C109.19 65.9764 109.122 66.0446 109.054 66.1128C108.985 66.1811 108.985 66.2493 108.985 66.3857C108.985 66.6586 108.985 66.9315 109.054 67.1362C109.259 67.8184 109.874 67.8867 110.694 68.0913C112.129 68.3642 112.402 68.7053 112.334 69.0464C112.129 69.7969 110.762 69.3876 109.942 69.0464H109.874C109.805 69.0464 109.669 68.9782 109.6 68.9782C109.532 68.9782 109.395 69.0464 109.327 69.0464C109.259 69.1147 109.19 69.1829 109.122 69.2511C109.054 69.3193 109.054 69.4558 109.054 69.524C109.054 70.0698 109.327 71.0932 108.849 71.2296C108.029 71.4343 108.029 68.91 108.029 67.682C108.234 65.567 108.302 63.3839 108.302 62.9745C108.234 61.4736 107.96 60.0409 107.824 58.6082C107.619 56.0157 107.14 53.4232 106.389 50.899C106.115 50.2167 105.774 49.5345 105.432 48.8522C105.295 48.5793 105.227 48.3065 105.159 48.0336C105.295 47.0784 105.227 46.7373 104.407 46.2597C104.134 46.0551 103.929 45.9186 103.655 45.714C102.22 44.9635 101.059 43.6672 99.2821 43.3261C98.6671 43.2579 98.5305 43.3261 98.5305 43.8037C98.4621 44.6224 98.6671 45.5093 98.1888 46.328C97.5055 47.4195 97.7105 48.784 98.4621 49.8756C98.5988 50.0803 98.3938 50.2167 98.2571 50.4214C98.1888 50.2849 98.0521 50.1485 97.9838 50.012C97.9155 49.8074 97.9838 49.6027 97.9155 49.398C97.3688 48.3747 97.0271 47.2149 97.3688 46.0551C97.9838 43.9401 97.8471 42.1663 96.4805 42.0299C94.4305 41.8252 93.1321 40.529 92.0388 39.028C91.4238 38.1411 90.7405 37.3224 90.0571 36.5038C89.7838 36.1626 89.5788 36.1626 89.4421 36.6402C89.2371 37.3907 88.9638 38.1411 88.6221 38.8916C88.2805 39.7785 87.4605 40.529 87.4605 41.5523C87.4605 41.6888 87.2555 41.8252 87.1871 41.9617C86.9821 42.3028 86.7771 42.6439 86.3671 42.4392C86.1621 42.2346 86.0255 41.9617 85.9571 41.6888C85.8888 41.2112 85.6838 41.2112 85.2738 41.3476C85.0688 41.4159 84.9321 41.4841 84.7271 41.4841C84.1805 41.5523 83.9755 41.4159 84.0438 40.8701C84.1121 40.4607 84.1805 40.0514 84.1805 39.5738C84.1121 38.6869 84.6588 38.3458 85.4105 38.1411C86.5721 37.9365 87.5971 37.3907 88.4171 36.572C88.6905 36.2991 88.9638 35.958 89.1688 35.6169C90.1938 33.9795 91.2871 32.3421 91.8338 30.4318C91.9021 30.159 92.0388 29.8861 92.3121 29.7496C93.2688 29.272 94.0888 28.5216 94.2255 27.5665C94.5671 25.7244 94.6355 25.2468 93.2005 24.6328C93.0638 24.5646 92.8588 24.4964 92.8588 24.2917C92.8588 24.087 93.1321 23.9506 93.2688 23.8824C93.4738 23.8142 93.6788 23.8142 93.9521 23.8142C95.1821 23.5413 95.5238 22.5861 94.6355 21.631C94.3621 21.3581 93.9521 21.2217 93.5421 21.1534C93.0638 21.0852 92.5855 21.0852 92.1071 21.1534C92.4488 21.017 92.8588 20.8805 93.2005 20.8805C93.2005 20.8805 92.5855 15.4226 90.6038 13.717C90.4671 13.5806 90.2621 13.3759 90.1938 13.2395C90.0571 12.4208 89.3738 12.1479 88.6905 11.8068C87.9388 11.4657 87.6655 11.6021 87.3238 12.3526C87.2555 12.5572 87.2555 12.7619 87.1188 12.9666C87.0505 13.0348 86.5038 17.9469 86.4355 18.0151C86.3671 17.9469 86.6405 12.9666 86.6405 12.8984C86.6405 12.2161 86.7771 11.6021 86.7771 10.9199C86.8455 9.69185 86.7771 9.62363 85.5471 9.35073C85.2738 9.28251 84.7271 9.21428 84.4538 9.07784C83.6338 8.80494 82.7455 8.80494 81.9255 9.14606C81.5838 9.28251 81.2421 9.35073 80.9005 9.35073C80.2171 9.35073 79.9438 9.76007 79.9438 10.3741C79.9438 10.7834 80.0121 11.1928 80.0121 11.6021C80.0121 12.4208 80.5588 17.2647 80.5588 18.0151C80.4905 18.0151 79.8755 13.9899 79.8755 13.9899C79.7388 13.5124 79.6021 13.103 79.4655 12.6255C79.2605 12.2161 78.9188 11.875 78.5088 11.6021C78.1671 11.3974 76.6638 12.2844 76.6638 12.6937C76.5955 13.3077 76.3905 13.6488 75.7755 13.8535C75.6388 13.9217 75.5705 14.1264 75.4338 14.2628C73.9305 15.9684 73.4521 18.0151 73.6571 20.1983C73.7255 20.8123 73.5888 21.017 73.0421 21.0852C72.8371 21.0852 72.7005 21.1534 72.4955 21.2217C72.0171 21.4945 71.4705 22.3815 71.6755 22.7908C71.8805 23.2001 72.3588 23.473 72.7005 23.7459C72.8371 23.8142 73.1105 23.7459 73.2471 23.8142C73.3838 23.8824 73.6571 23.9506 73.6571 24.2917C73.6571 24.4964 73.3838 24.5646 73.2471 24.5646C72.5638 24.6328 72.2905 25.0422 72.1538 25.588C71.7438 27.0889 72.8371 28.9992 74.4088 29.4767C74.4771 29.5449 74.5455 29.6132 74.6138 29.6814C74.6821 29.7496 74.7505 29.8178 74.7505 29.9543C74.7505 31.2505 75.2971 32.3421 75.9121 33.4337C76.5955 34.5253 76.5955 35.8897 75.7755 36.8449C75.0238 37.8 74.6138 38.8234 73.8621 39.7103C73.5888 39.9832 73.4521 40.2561 73.3155 40.5972C73.2471 40.9383 73.1788 41.2794 73.3155 41.6205C73.3838 42.2346 73.3155 42.7803 73.1788 43.3944C73.1788 43.4626 73.1788 43.5308 73.1105 43.5308C73.0421 43.5308 73.0421 43.599 72.9738 43.599C72.9055 43.599 72.8371 43.599 72.8371 43.5308C72.7688 43.5308 72.7688 43.4626 72.7688 43.3944C72.5638 42.8486 72.4271 42.371 72.2905 41.8252C72.1538 41.2112 71.9488 41.0065 71.3338 41.2112C70.4455 41.4841 69.5571 41.6205 68.9421 42.371C68.6005 42.6439 68.2588 42.9168 67.7805 43.0532C67.0971 43.3261 66.3455 43.4626 65.7305 43.8037C64.3638 44.6224 63.0655 45.5093 61.8355 46.3962C61.2888 46.7373 60.9471 47.2831 61.1521 48.0336C61.2205 48.2382 61.2205 48.5794 61.1521 48.6476C60.6055 49.1251 60.6738 49.8756 60.4005 50.4896C59.7855 51.7176 59.4438 53.0821 59.5121 54.4466C59.5121 55.2653 59.5805 56.084 58.8971 56.698C58.7605 56.8344 58.7605 57.1073 58.6921 57.312C58.5555 59.0176 58.3505 60.6549 58.4188 62.3605C58.4871 63.725 58.6921 69.4558 59.5805 71.7072L58.8971 71.3661C58.8971 71.2978 58.0088 68.3642 57.7355 66.8633C57.6671 66.6586 57.5988 66.454 57.4621 66.3175C57.3255 66.1811 57.1205 66.0446 56.9155 66.0446C53.4988 65.4306 51.5855 64.4755 50.3555 63.9979C49.9455 63.8615 49.5355 63.725 49.1255 63.5203C48.9888 63.4521 48.9205 63.3157 48.8521 63.1792L48.5788 62.5652C48.5788 62.5652 48.1688 61.883 50.3555 63.111C52.0638 64.0661 55.0705 64.4072 56.5055 64.5437C56.5738 64.5437 56.7105 64.5437 56.7788 64.4755C56.8471 64.4072 56.9155 64.4072 56.9838 64.2708C57.0521 64.2026 57.0521 64.1343 57.0521 63.9979C57.0521 63.9297 57.0521 63.7932 56.9838 63.725C56.7105 63.1792 56.5738 62.5652 56.5738 61.9512C56.5738 61.883 56.5738 61.883 56.5738 61.8147C56.5738 61.7465 56.6421 61.7465 56.6421 61.7465C56.6421 61.7465 56.7105 61.6783 56.7788 61.6783C56.8471 61.6783 56.8471 61.6783 56.9155 61.6783H56.9838C57.0521 61.6783 57.1205 61.6783 57.1888 61.6783C57.2571 61.6783 57.3255 61.6101 57.3938 61.6101C57.4621 61.5419 57.4621 61.5418 57.5305 61.4736C57.5305 61.4054 57.5988 61.3372 57.5988 61.269C57.5988 60.1092 57.8721 58.1989 57.8721 58.1989C57.8721 58.1989 58.0088 57.5849 57.6671 57.4484C57.2571 57.312 57.5988 56.8344 57.5988 56.8344C57.9405 56.4933 58.1455 55.4699 58.2138 54.7877C58.2821 54.3784 58.3505 54.0372 58.5555 53.6961C58.6238 53.5597 58.8288 53.2186 58.8288 53.2186V53.1503C58.9655 52.8774 59.1021 52.6045 59.1705 52.2634C59.5805 51.1719 60.0588 50.012 60.4688 48.8522C60.5371 48.784 60.5371 48.6476 60.5371 48.5793C60.5371 48.5793 60.5371 48.5793 60.5371 48.5111C60.5371 48.4429 60.5371 48.4429 60.5371 48.3747C60.5371 48.3065 60.5371 48.2382 60.5371 48.17C60.5371 47.9653 60.4688 47.6924 60.4005 47.4878C60.3321 47.2831 60.1955 47.0784 59.9905 46.942C59.0338 46.0551 58.9655 45.4411 59.7171 44.3495C59.8538 44.1448 59.9905 43.9401 60.0588 43.7355C60.2638 43.1215 60.5371 42.5074 60.7421 41.8934C60.8105 41.6888 60.9471 40.8701 61.0155 40.6654C61.1521 40.2561 61.2205 39.9149 61.3571 39.5056C61.4255 39.4374 61.4255 39.4374 61.4938 39.3692C61.5621 39.3692 61.6305 39.3009 61.6988 39.3009C61.7671 39.3009 61.7671 39.3009 61.8355 39.3009C61.9038 39.3009 61.9038 39.3009 61.9038 39.3009C61.9721 39.3009 62.1088 39.2327 62.1771 39.1645C62.2455 39.0963 62.3138 38.9598 62.3138 38.8916C62.4505 38.6187 62.5188 38.3458 62.5871 38.0729C62.5871 37.9365 62.6555 37.8 62.6555 37.5953C62.7921 36.2991 62.9288 35.0028 63.0655 33.7066C63.0655 33.5701 63.0655 33.4337 63.1338 33.2972C63.2021 32.4786 62.9288 31.6599 62.4505 31.0459C62.0405 30.5001 61.6305 29.8861 61.1521 29.3403C60.2638 28.3169 59.1705 27.43 57.8721 26.816C56.5055 26.0655 55.0705 25.5197 53.5671 25.1786C53.4305 25.1104 53.2938 25.1104 53.0888 25.0422C53.0205 25.0422 52.8838 24.974 52.8155 24.974L52.4738 24.9057C52.3371 24.9057 52.2688 24.8375 52.1321 24.8375H51.9271C51.7905 24.8375 51.7221 24.8375 51.5855 24.8375C51.3805 24.8375 51.1755 24.8375 50.9705 24.8375H50.7655H50.6971C50.6288 24.8375 50.5605 24.8375 50.4921 24.9057C50.4238 24.9057 50.2871 24.974 50.2188 24.974C50.1505 24.974 50.0138 25.0422 49.9455 25.1104L49.8088 25.1786C49.7405 25.2469 49.6038 25.3151 49.5355 25.3151L49.2621 25.4515C49.1938 25.4515 49.1938 25.5197 49.1255 25.5197L48.9888 25.588L48.7838 25.7244L48.5788 25.8609C48.3055 26.0655 48.1005 26.2702 47.8955 26.4749L47.7588 26.6113C47.6221 26.7478 47.4855 26.8842 47.3488 27.0207C46.9388 27.4982 46.5971 28.044 46.3238 28.5898C46.2555 28.7263 46.1871 28.8627 46.0505 28.9992C45.9138 29.2038 45.7088 29.4085 45.5038 29.5449C45.2988 29.6132 45.0938 29.6132 44.6838 29.7496C44.0688 29.9543 43.4538 30.2272 42.8388 30.5683C42.7705 30.6365 42.7021 30.6365 42.6338 30.7047C42.0871 31.1141 41.6088 31.5917 41.1988 32.2057C40.9938 32.5468 40.8571 32.9561 40.7888 33.3655C40.7205 33.7748 40.7888 34.1842 40.9255 34.5935C41.0621 34.9346 41.2671 35.2757 41.6088 35.5486C41.8821 35.8215 42.2238 35.958 42.6338 36.0944C42.7021 36.0944 43.1121 36.2309 43.2488 36.2309C43.5905 36.2991 43.9321 36.2991 44.2738 36.3673C44.4105 36.3673 44.4788 36.4355 44.5471 36.5038C44.6155 36.572 44.6838 36.7084 44.6838 36.7767C44.6838 36.9131 44.7521 37.1178 44.7521 37.2542C44.7521 37.3907 44.7521 37.5953 44.7521 37.8C44.7521 37.9365 45.0255 38.8234 45.0255 38.8916C45.0938 39.2327 45.1621 39.5056 45.1621 39.8467C45.1621 39.9832 45.1621 40.2561 45.1621 40.2561C45.1621 40.529 45.1621 40.8019 45.2305 41.143C45.2305 41.2794 45.2988 41.4159 45.3671 41.5523C45.3671 41.6205 45.5721 42.0299 45.5721 42.0981C45.6405 42.2346 45.7771 42.6439 45.7771 42.6439C45.9138 43.1897 46.0505 43.7355 46.0505 44.2813C46.1188 44.9635 46.2555 45.6457 46.3238 46.3962C46.3238 46.8738 46.5288 47.4195 46.8705 47.7607C47.2121 48.17 47.6221 48.4429 48.1005 48.5793C48.3055 48.6476 48.5788 48.784 48.7838 48.8522C48.8521 48.8522 48.9888 48.9205 49.0571 48.9887C49.1255 49.0569 49.1938 49.1251 49.2621 49.2616C49.3305 49.3298 49.3305 49.4663 49.3305 49.5345C49.3305 49.6709 49.3305 49.7392 49.2621 49.8756C49.1255 50.012 48.9888 50.1485 48.8521 50.3532C47.2121 52.127 44.2055 51.4447 42.0871 52.8092C40.2421 54.3101 38.8071 56.2886 37.9188 58.54C37.1671 62.2923 37.3038 67.2044 37.3038 67.5455V67.9549C37.3038 68.4324 37.2355 69.3876 37.2355 70.752C37.1671 73.0716 37.2355 75.3913 37.3038 77.5744L129.075 77.9838ZM118.142 66.5222C118.142 66.454 118.21 66.3857 118.21 66.3175C118.279 66.2493 118.279 66.2493 118.347 66.1811C118.757 65.9764 119.235 65.7717 119.714 65.6353C120.124 65.4988 120.534 65.2942 120.875 65.0895C120.944 65.0895 121.012 65.0213 121.08 65.0213C121.149 65.0213 121.217 65.0213 121.285 65.0895C121.354 65.0895 121.422 65.1577 121.49 65.2259C121.559 65.2941 121.559 65.3624 121.627 65.4306C121.695 65.567 121.627 65.7035 121.559 65.8399C121.49 65.9764 121.354 66.1128 121.217 66.1128L119.987 66.5904C119.919 66.5904 119.85 66.6586 119.782 66.7268C119.714 66.7951 119.714 66.8633 119.714 66.9997L119.782 67.682C119.782 67.7502 119.782 67.8184 119.85 67.8866C119.85 67.9549 119.919 68.0231 119.987 68.0231C120.055 68.0913 120.124 68.0913 120.192 68.0913C120.26 68.0913 120.329 68.0913 120.397 68.0231C120.807 68.0231 121.285 67.8866 121.627 67.6138C122.174 67.2726 122.789 66.9315 122.789 66.9315C122.857 66.9315 122.994 66.9315 123.062 66.9315C123.13 66.9997 123.199 67.068 123.267 67.1362C123.335 67.2044 123.335 67.3409 123.335 67.4091C123.335 67.4773 123.267 67.6138 123.199 67.6138C122.857 67.8184 122.584 68.0913 122.31 68.4324C122.037 68.7736 120.807 69.1147 120.807 69.1147C120.739 69.1829 120.67 69.1829 120.67 69.2511L120.192 70.2063C119.987 70.4791 119.714 70.6838 119.44 70.752C119.03 70.8885 119.03 71.2978 118.484 71.3661C117.937 71.5025 117.937 70.9567 118.142 70.6838L118.894 69.7969C118.962 69.7287 118.962 69.6605 118.962 69.5922C118.962 69.524 118.962 69.4558 118.962 69.3876C118.962 69.3193 118.894 69.2511 118.825 69.1829C118.757 69.1147 118.689 69.1147 118.62 69.1147L118.279 69.0464C118.142 69.0464 118.074 68.9782 118.005 68.91C117.937 68.8418 117.937 68.7053 117.937 68.6371C118.074 68.2278 118.21 67.8184 118.279 67.4091C118.21 67.2726 118.21 66.8633 118.142 66.5222ZM120.055 40.6654C119.987 40.9383 119.85 41.2794 119.782 41.5523C119.782 41.6888 119.714 41.757 119.577 41.8252C119.509 41.8934 119.372 41.9617 119.304 41.9617C119.167 41.9617 119.099 41.9617 118.962 41.8934C118.894 41.8252 118.757 41.757 118.689 41.6888C118.484 41.3476 118.347 41.0065 118.21 40.5972C118.21 40.5972 118.21 40.5972 118.21 40.529C118.21 40.529 118.21 40.529 118.21 40.4607C118.21 40.4607 118.21 40.4607 118.279 40.4607C118.347 40.4607 118.279 40.4607 118.347 40.4607C118.894 40.5972 119.372 40.5972 119.919 40.529C119.919 40.529 119.919 40.529 119.987 40.529C120.055 40.5972 120.055 40.6654 120.055 40.6654ZM118.005 38.8234C118.074 38.5505 118.074 38.2094 118.21 37.9365C118.279 37.7318 118.347 37.6636 118.415 37.6636C118.689 37.6636 119.509 37.8 119.509 37.8L118.415 38.5505L118.005 38.8234ZM120.055 40.1878C119.987 40.2561 119.919 40.3243 119.782 40.3243C119.714 40.3243 119.577 40.3243 119.509 40.3243C119.509 40.2561 119.509 40.0514 119.509 40.0514C119.85 39.7103 120.124 39.3692 120.397 39.028C120.465 39.4374 120.329 39.8467 120.055 40.1878ZM109.737 38.2776C109.805 37.9365 110.01 37.5271 110.079 37.2542C110.42 36.4355 112.334 35.7533 112.88 34.3888C112.949 34.1842 113.085 33.9795 113.222 33.843C113.359 33.7066 113.564 33.6384 113.837 33.5701C115.75 33.3655 116.707 34.5935 119.03 34.8664C119.645 34.9346 120.534 35.4804 120.465 36.4355C120.465 36.7767 120.534 37.1178 120.534 37.4589C120.534 37.4589 120.534 37.4589 120.465 37.4589C120.26 37.3224 119.987 37.2542 119.782 37.2542C119.577 37.2542 119.167 37.1178 118.552 37.0495C118.347 37.0495 118.142 36.9813 118.142 37.1178C118.074 37.3224 117.937 37.3224 117.732 37.3224L116.912 37.186C116.639 37.1178 116.912 36.9813 116.775 36.8449C116.707 36.7084 114.93 36.572 114.589 36.572C113.7 36.5038 113.632 36.6402 113.017 36.9813C112.334 37.3224 111.582 37.6636 110.83 38.0729C110.557 38.2094 110.284 38.414 109.942 38.5505H109.874C109.874 38.5505 109.805 38.5505 109.805 38.4822L109.737 38.414C109.737 38.3458 109.737 38.3458 109.737 38.2776ZM114.862 39.4374L116.502 38.6187C116.502 38.6187 115.955 39.5738 115.545 39.8467C115.409 39.9149 115.272 39.9832 115.135 39.9832C114.999 39.9832 114.794 39.9832 114.657 39.9149L114.862 39.4374ZM113.222 38.6187L113.495 37.8C113.495 37.8 113.837 37.1178 114.452 37.1178C114.862 37.1178 115.272 37.186 115.75 37.2542L113.222 38.6187ZM110.215 43.1897L110.079 43.1215H110.01L109.874 43.0532C109.19 42.7803 109.327 43.6672 108.78 43.4626C108.507 43.3944 108.302 43.1897 108.165 43.0532C107.96 42.9168 107.755 42.7121 107.619 42.5757C107.072 41.8934 106.73 41.0747 106.662 40.2561C106.594 39.7785 106.662 39.2327 107.277 39.028C107.755 38.8234 108.234 39.0963 108.575 39.7103C108.712 39.9149 108.78 40.1878 108.917 40.3925C109.054 40.6654 109.19 41.143 109.395 41.3476C109.669 41.4841 109.669 40.5972 109.532 40.3925V40.3243V40.2561C109.6 40.2561 109.874 40.1878 109.942 40.1878C111.172 39.9832 112.334 40.1878 113.564 40.4607C114.042 40.529 114.52 40.5972 114.999 40.6654C115.204 40.6654 115.409 40.6654 115.545 40.5972C115.75 40.529 115.887 40.3925 116.024 40.2561C116.365 39.8467 116.639 39.4374 116.912 38.9598C117.049 38.6869 117.254 38.5505 117.39 38.7551C117.459 38.8916 117.322 39.2327 117.185 39.4374C117.185 39.5056 117.117 39.5738 117.117 39.5738C117.117 39.5738 117.117 39.7103 117.185 39.7103L117.937 41.3476V41.4159V41.4841C117.937 41.4841 117.937 41.5523 117.869 41.5523C117.869 41.5523 117.8 41.5523 117.8 41.6205C117.664 41.6888 117.117 41.8252 116.912 41.9617C116.502 42.0981 116.16 42.3028 115.955 42.6439C115.819 42.8486 115.887 42.9168 116.024 42.9168L117.117 42.8486C117.049 42.985 116.98 43.3261 117.459 43.6672C117.254 43.7355 117.049 43.7355 116.844 43.6672C116.16 43.599 115.34 44.213 114.999 44.5541C114.93 44.6224 114.862 44.6906 114.862 44.7588C114.93 44.827 115.135 44.6906 115.34 44.6224C115.887 44.4177 117.254 44.213 117.527 44.3495C117.664 44.4177 117.8 45.0999 116.844 45.0317C116.434 44.9635 116.024 44.9635 115.614 45.0317C115.545 45.0317 115.545 45.0317 115.545 45.0999L115.477 45.1682C115.477 45.2364 115.477 45.2364 115.477 45.3046C115.477 45.3728 115.477 45.3728 115.545 45.3728C115.682 45.5775 115.887 45.7822 116.092 45.9869C116.297 46.1233 116.57 46.2597 116.844 46.2597L117.254 46.328C117.732 46.4644 118.005 46.942 117.8 47.6242C117.732 47.8971 117.527 48.0336 117.254 48.1018C116.707 48.3065 116.092 48.3747 115.477 48.3065C114.725 48.3065 113.974 48.0336 113.29 47.6242C112.607 47.2149 112.129 46.5326 111.855 45.8504C111.65 44.5542 111.445 44.0084 110.215 43.1897ZM111.787 54.9241L111.855 54.7877C111.855 54.7195 111.924 54.6513 111.992 54.583C112.06 54.5148 112.129 54.4466 112.265 54.4466C112.744 54.3784 113.222 54.2419 113.632 54.0372C113.7 54.0372 113.769 53.969 113.837 53.9008C113.905 53.8326 113.905 53.7643 113.974 53.6961C113.974 53.6279 113.974 53.5597 113.974 53.4915C113.974 53.4232 113.905 53.355 113.905 53.2868L113.222 52.1952C113.154 52.127 113.154 52.0588 113.154 51.9905C113.154 51.9223 113.154 51.8541 113.222 51.7859C113.222 51.7176 113.29 51.7176 113.359 51.6494C113.427 51.6494 113.495 51.5812 113.564 51.6494C114.042 51.7176 114.589 51.7176 115.067 51.6494C115.204 51.6494 115.272 51.6494 115.409 51.6494C115.545 51.7176 115.614 51.7859 115.682 51.8541C115.955 52.3317 116.365 52.6728 116.912 52.9457C116.98 52.9457 117.049 53.0139 117.049 53.0821C117.117 53.1503 117.117 53.2186 117.117 53.2868C117.117 53.355 117.117 53.4232 117.117 53.4915C117.117 53.5597 117.049 53.6279 116.98 53.6279C116.092 54.2419 114.384 55.3335 112.402 55.4699C112.334 55.4699 112.265 55.4699 112.129 55.4017C112.06 55.3335 111.992 55.3335 111.924 55.2653C111.855 55.197 111.855 55.1288 111.855 55.0606C111.855 54.9924 111.787 54.9924 111.787 54.9241ZM67.6438 64.4072C67.5071 64.6119 67.3705 64.7484 67.1655 64.8848C66.8238 65.0895 66.4138 65.1577 66.0038 65.1577C65.0471 65.2942 64.0905 65.2942 63.2021 65.4988C61.7671 65.7717 61.6305 65.7035 61.6305 64.2708C61.6305 64.2026 61.6305 63.3839 61.6988 63.0428C61.6988 62.9063 61.7671 62.7699 61.8355 62.6334C61.9038 62.497 62.0405 62.4288 62.1771 62.3605C63.3388 61.6783 64.5005 61.6101 65.8671 62.1559C66.1405 62.2923 66.6871 62.4288 66.3455 62.9063C66.0721 63.3839 66.3455 63.3839 66.6188 63.5203C66.6871 63.5203 66.9605 63.5886 67.3021 63.6568C67.3705 63.6568 67.4388 63.725 67.5071 63.725C67.5755 63.7932 67.6438 63.8615 67.6438 63.9297C67.6438 63.9979 67.7121 64.0661 67.6438 64.1343C67.7121 64.2708 67.7121 64.339 67.6438 64.4072ZM93.9521 59.0176C95.4555 59.154 96.5488 59.2222 97.6421 59.3587C98.2571 59.4269 98.9405 59.9727 98.9405 60.382C98.9405 61.0643 98.1205 61.9512 97.4371 61.883C95.8655 61.883 94.3621 61.5418 92.8588 61.3372C92.2438 61.269 91.6288 61.1325 91.0821 60.9961C90.6038 60.8596 89.4421 60.7232 89.4421 60.3138C89.4421 60.1092 89.5788 60.0409 89.9888 59.9727C91.4238 59.6316 92.5855 59.3587 93.5421 59.154C93.6788 58.9493 93.8155 58.9493 93.9521 59.0176ZM88.0755 42.7803C88.9638 42.1663 89.1688 41.2112 89.4421 40.3243C89.5105 40.0514 89.7155 39.7785 89.8521 39.5738C89.9205 39.5056 89.9205 39.5056 89.9888 39.4374C90.0571 39.4374 90.1255 39.3692 90.1938 39.3692C90.2621 39.3692 90.3305 39.3692 90.3988 39.4374C90.4671 39.4374 90.5355 39.5056 90.5355 39.5738C91.2871 40.7336 92.0388 41.8252 92.7221 42.985C93.4055 44.1448 93.1321 45.3046 92.9271 46.5326C92.8588 47.1466 92.0388 47.2149 91.6971 46.7373C90.8088 45.5775 89.5788 44.6224 88.2805 44.0084C87.8705 43.7355 87.6655 43.0532 88.0755 42.7803ZM84.0438 54.3101C84.3171 53.2868 84.5221 52.2634 84.6588 51.2401C84.7955 50.4214 84.6588 49.398 85.8205 48.9887C86.1621 48.8522 86.1621 48.1018 86.4355 48.17C86.7088 48.2382 86.5721 49.5345 86.6405 50.0803C86.6405 50.1485 86.6405 50.1485 86.7088 50.2167C86.7771 50.2849 86.7771 50.2849 86.8455 50.2849C86.9138 50.2849 86.9138 50.2849 86.9821 50.2849C87.0505 50.2849 87.0505 50.2167 87.0505 50.2167C87.4605 49.6709 88.2121 48.784 88.5538 48.3747C89.3738 47.4878 89.9205 47.6242 91.1505 48.3747C91.6971 48.7158 92.3121 48.9205 92.8588 49.1934C92.9955 49.2616 93.1321 49.3298 93.2688 49.398C93.4055 49.5345 93.4738 49.6027 93.5421 49.7392C93.6105 49.8756 93.6105 50.0121 93.6105 50.1485C93.6105 50.2849 93.5421 50.4214 93.4738 50.5578C93.2005 51.0354 93.0638 51.5812 93.0638 52.0588C93.0638 52.6045 93.1321 53.1503 93.3371 53.6279C93.4055 53.8326 93.4055 53.969 93.3371 54.1737C93.2688 55.6746 93.5421 56.084 91.4921 56.084C88.4855 56.084 85.4105 56.2204 82.4038 56.2886C81.5838 56.2886 80.7638 56.4933 80.0121 56.5615C79.6705 56.5615 79.3971 56.5615 79.0555 56.4933C78.7138 56.4251 78.6455 56.2204 78.8505 55.9475C79.0555 55.6746 79.3288 55.5382 79.6021 55.4017C79.8755 55.2653 80.2171 55.197 80.4905 55.2653C81.2421 55.2653 82.0621 55.3335 82.8138 55.2653C83.7021 55.3335 83.7705 55.197 84.0438 54.3101ZM80.6271 46.4644C81.5155 46.328 82.2671 46.7373 82.3355 47.7607C82.3355 47.8971 82.3355 47.9653 82.2671 48.1018C82.1988 48.2382 82.1305 48.3065 82.0621 48.3747C81.9255 48.5111 81.7205 48.6476 81.5838 48.5793C81.4471 48.5111 81.3788 48.4429 81.3105 48.3747C80.9688 47.9653 80.6271 47.4878 80.3538 47.0102C80.1488 46.6691 80.2855 46.5326 80.6271 46.4644ZM85.0005 33.9113C84.7271 33.7748 83.8388 33.843 83.6338 33.6384C83.0188 33.0243 83.6338 32.9561 83.8388 32.8879C84.3855 32.7515 84.9321 32.7515 85.5471 32.7515C85.9571 32.7515 86.7771 32.7515 86.7088 32.3421C86.6405 32.1374 86.0255 31.9328 85.7521 31.8645C84.6588 31.7963 83.4971 31.7281 82.4038 31.7281C82.2671 31.7281 82.1305 31.7281 81.9938 31.7281C81.7888 31.7281 81.6521 31.5917 81.7205 31.5234C81.7205 31.4552 81.7888 31.4552 81.8571 31.387C81.9255 31.3188 81.9255 31.3188 81.9938 31.3188C82.6771 31.0459 83.4288 30.773 84.1121 30.5001C84.2488 30.4319 84.3855 30.4319 84.3855 30.2272C84.3855 30.159 84.3171 30.0907 84.2488 30.0225C84.1805 29.9543 84.1121 29.9543 84.0438 29.9543C83.6338 29.8861 83.2238 29.9543 82.8138 29.9543C81.9938 29.8178 81.8571 29.3403 82.3355 28.7263C82.8821 28.1122 83.1555 27.3618 83.2238 26.5431C83.2238 25.7244 82.9505 24.974 82.4721 24.3599C82.4038 24.2235 81.2421 24.087 81.2421 23.8142C81.7205 23.8142 82.1988 23.8142 82.7455 23.8142C83.0871 23.8142 83.4288 23.8142 83.8388 23.8142H85.6155C85.9571 24.1553 84.7955 24.3599 84.0438 24.5646C83.8388 24.6328 84.7271 25.1104 84.4538 25.588C84.1121 26.3384 84.9321 26.2702 86.2988 26.6795C87.8021 27.1571 88.2805 26.816 88.8955 25.9973C89.4421 25.2468 88.5538 24.6328 88.2805 24.3599C88.1438 24.2235 89.6471 24.6328 89.6471 25.7244C89.6471 26.7478 89.7838 27.7711 89.7838 28.7263C89.7838 28.9992 89.7838 29.6132 89.7838 29.8861C89.7838 31.387 89.4421 32.0692 88.8271 33.2972C88.2121 34.1159 87.8705 34.9346 87.3238 35.8215C87.0505 36.2991 85.5471 36.9131 85.0005 36.9131C83.9071 36.9131 83.6338 36.9131 81.9938 36.9131C80.8321 36.9131 80.7638 36.5038 80.6955 35.7533C80.6271 35.2075 81.1738 34.7982 81.9255 34.7299C82.4038 34.7299 82.8138 34.7299 83.2921 34.6617C84.9321 34.5935 85.4105 34.1842 85.0005 33.9113ZM79.0555 26.7478C79.7388 26.7478 80.9688 26.4749 80.9688 27.0207C81.0371 27.6347 79.8755 28.8627 79.3971 28.8627C78.9871 28.8627 78.0305 27.9076 78.0988 27.4982C78.0988 27.0889 78.3721 26.7478 79.0555 26.7478ZM76.3905 38.7551C76.4588 38.7551 76.5271 38.7551 76.5955 38.7551C76.6638 38.7551 76.7321 38.8234 76.8005 38.8234C77.0055 39.028 77.2105 39.2327 77.4155 39.5056C78.0988 40.6654 78.9871 41.757 79.9438 42.7121C80.4905 43.3261 80.9005 44.0084 81.2421 44.6906C81.2421 44.7588 81.3105 44.7588 81.2421 44.827C81.2421 44.8953 81.2421 44.8953 81.1738 44.9635C81.1055 45.0317 81.1055 45.0317 81.0371 45.0317C80.9688 45.0317 80.9688 45.0317 80.9005 45.0317C80.4905 44.827 80.1488 44.6224 79.7388 44.4177C79.1238 44.0084 78.5771 43.599 77.8255 44.213C77.5521 44.4177 77.2105 44.4177 77.3471 43.7355C77.6888 42.6439 77.0738 41.5523 76.6638 40.4607C76.4588 39.9832 76.3221 39.5738 76.2538 39.0963C76.1855 38.9598 76.3221 38.7551 76.3905 38.7551ZM70.5821 59.768C70.7188 59.5634 70.8555 59.3587 71.0605 59.2222C71.2655 59.0858 71.4705 59.0176 71.7438 58.9493C72.7688 58.7447 73.7255 58.6082 74.6821 58.4718C75.2288 58.4718 75.7755 58.4718 76.2538 58.6765C78.5771 59.2905 80.9005 59.9727 83.2238 60.5867C83.7705 60.7232 84.3855 60.8596 85.0005 60.9278C87.3238 61.4054 89.5788 62.1559 91.7655 63.0428C92.1071 63.1792 92.3805 63.3839 92.6538 63.6568C92.8588 63.9297 92.9955 64.2708 93.0638 64.6119C93.2005 65.4306 93.4738 66.2493 93.7471 66.9997C93.8838 67.6138 93.6788 67.8867 93.0638 67.7502C92.6538 67.6138 92.3121 67.4773 91.9021 67.3409C91.2188 67.1362 89.9888 66.7951 89.2371 66.5904C89.1688 66.5904 89.1688 66.5904 89.1005 66.5904L89.0321 66.6586C89.0321 66.6586 89.0321 66.7268 89.0321 66.7951C89.0321 66.8633 89.0321 66.8633 89.1005 66.8633C89.5105 67.2044 90.0571 67.6138 90.3305 67.8184C90.3988 67.8184 90.3988 67.8866 90.3988 67.8866C90.3988 67.9549 90.3988 67.9549 90.3988 68.0231C90.3988 68.0913 90.3305 68.0913 90.3305 68.0913C90.2621 68.0913 90.2621 68.0913 90.1938 68.0913C89.3055 67.9549 88.4855 67.7502 87.7338 67.4091C86.5721 66.9315 84.4538 66.1811 83.2921 65.7717C83.2238 65.7717 83.2238 65.7717 83.1555 65.7717C83.0871 65.7717 83.0871 65.8399 83.0871 65.8399C83.0871 65.9082 83.0871 65.9082 83.0871 65.9764C83.0871 66.0446 83.0871 66.0446 83.1555 66.0446C84.3855 66.8633 86.5038 68.0913 87.5288 68.7736C87.6655 68.8418 88.4171 69.2511 88.2805 69.5922C88.1438 69.9334 86.5038 69.2511 85.6838 68.91C84.1805 68.2278 82.4721 67.2726 80.9688 66.454C79.7388 65.8399 78.6455 65.0895 77.4838 64.4755C77.1421 64.2708 76.8688 64.0661 76.5955 63.9297C75.7755 63.3839 74.9555 62.9745 74.0671 63.9297C73.9305 64.0661 73.5205 64.0661 73.3155 64.0661C72.4271 64.1343 71.6071 64.1343 70.7188 64.1343C70.3088 64.1343 69.8988 64.1343 69.8988 63.6568C69.7621 62.4288 69.6938 60.9961 70.5821 59.768ZM68.8738 69.7969C69.0788 69.4558 69.2838 69.1147 69.5571 68.7736C69.7621 68.5007 69.9671 68.3642 70.2405 68.7736C70.5138 69.1829 70.8555 69.1147 71.1288 68.7736C71.4705 68.296 72.0171 67.9549 72.1538 67.4091C72.4271 66.7268 72.9738 66.6586 73.5205 66.5222C73.7938 66.454 74.0671 66.6586 74.3405 66.5904C76.8688 66.3175 78.7138 67.6138 80.6271 68.91C80.9005 69.0465 81.2421 69.4558 81.1738 69.524C81.0371 69.8651 80.7638 70.0698 80.4905 70.2063C79.1238 70.6838 77.4838 70.8885 76.0488 71.2978C74.9555 71.639 73.9988 72.3212 72.9055 72.6623C72.2905 72.867 71.6755 72.9352 71.0605 73.0716C69.1471 73.1399 68.0538 71.4343 68.8738 69.7969ZM61.2888 59.3587C61.3571 59.0858 61.7671 58.8811 62.1088 58.7447C62.4505 58.6765 62.8605 58.7447 63.2021 58.8129C63.6805 58.8129 64.6371 58.8129 65.3888 58.8129C65.4571 58.8129 65.5255 58.8129 65.5938 58.7447C65.6621 58.6765 65.6621 58.6082 65.7305 58.54C65.7305 58.4718 65.7305 58.4036 65.7305 58.3353C65.6621 58.2671 65.6621 58.1989 65.5938 58.1989C64.6371 57.7895 63.6805 57.4484 62.6555 57.2438C62.1088 57.1755 61.9721 57.1073 62.1088 56.6297C62.5188 55.1288 62.9971 53.6961 63.4755 52.1952C63.8171 51.2401 64.3638 51.1036 65.1838 51.7176C65.7988 52.127 66.4821 52.4681 67.0971 52.9457C68.3955 54.0372 68.6005 55.4699 68.5321 57.0391C68.4638 57.8578 68.3271 58.6082 68.3271 59.4269C68.3271 59.9045 68.1905 60.1774 67.6438 60.1774C66.2088 60.2456 65.1155 60.4503 63.6805 60.5185C63.5438 60.5185 63.4755 60.5185 63.3388 60.5185C62.8605 60.4503 62.4505 60.382 62.0405 60.2456C61.9038 60.2456 61.8355 60.1774 61.7671 60.1091C61.6988 60.0409 61.6305 59.9727 61.5621 59.8363C61.4938 59.6998 61.4938 59.6316 61.4938 59.4951C61.2888 59.5634 61.2888 59.4951 61.2888 59.3587ZM56.7105 35.2757C58.4871 36.2309 59.3755 37.186 60.9471 38.4822C61.0155 38.5505 61.0838 38.6187 61.1521 38.7551C61.2205 38.8916 61.0838 38.9598 60.9471 38.8916C60.6738 38.7551 60.4005 38.6187 60.1955 38.414C58.7605 37.3224 58.0088 36.6402 56.3005 35.8215C56.2321 35.8215 56.1638 35.7533 56.0955 35.6851C56.0271 35.6168 56.0271 35.6168 56.0271 35.5486C55.9588 35.4804 55.9588 35.344 55.9588 35.2757C55.9588 35.1393 56.5055 35.1393 56.7105 35.2757ZM47.2121 29.6814C47.3488 29.5449 48.0321 29.7496 48.4421 29.8178C50.6288 30.2272 52.5421 31.1141 54.0455 32.8197C54.3871 33.229 54.7288 33.7066 55.0021 34.1842C55.2071 34.5253 55.0705 34.7299 54.6605 34.7299C54.0455 34.7299 53.9771 34.6617 53.6355 34.1159C52.8155 32.4103 51.3805 31.3188 49.6721 30.6365C48.8521 30.2954 47.3488 30.0907 47.2805 29.9543C47.2121 29.8861 47.2121 29.8861 47.2121 29.8178C47.1438 29.7496 47.1438 29.6814 47.2121 29.6814ZM48.3738 47.9653C48.1688 47.8971 48.0321 47.7607 47.8955 47.556C47.6905 47.3513 47.5538 47.0784 47.4855 46.8055C47.4855 46.7373 47.4171 46.6691 47.4171 46.6009C47.2121 45.7822 47.0755 44.8953 46.9388 44.0766C46.7338 43.2579 46.4605 42.371 46.3238 41.4841C46.1871 40.9383 46.0505 40.1878 46.0505 39.9149C46.0505 39.8467 46.0505 39.8467 46.0505 39.7785C46.0505 39.7103 46.1188 39.7103 46.1188 39.642C46.1871 39.5738 46.2555 39.5738 46.3238 39.5738C47.0755 39.7785 47.8271 39.642 48.5105 39.2327C48.5788 39.2327 48.5788 39.1645 48.6471 39.1645C48.7155 39.1645 48.7838 39.1645 48.7838 39.1645C48.8521 39.1645 48.8521 39.2327 48.9205 39.2327C48.9888 39.3009 48.9888 39.3009 48.9888 39.3692C49.1938 40.0514 48.8521 40.529 48.5788 41.0065C48.5105 41.2112 48.3738 41.4159 48.3055 41.6205C48.2371 41.8252 48.1688 41.9617 48.1005 42.1663V42.2346C48.1005 42.3028 48.1005 42.3028 48.1688 42.371C48.2371 42.371 48.2371 42.4392 48.3055 42.4392C48.3738 42.4392 48.3738 42.5074 48.4421 42.5074C48.7838 42.5074 49.1938 42.5074 49.5355 42.4392C50.0138 42.371 50.4921 42.371 51.0388 42.3028C51.1071 42.3028 51.2438 42.3028 51.3121 42.1663C51.3805 42.0981 50.9021 41.8934 50.6971 41.8252C50.4238 41.6888 50.0821 41.5523 49.7405 41.4841C49.4671 41.4159 49.3988 41.2794 49.5355 41.0065C49.8088 40.4607 49.8771 39.7785 49.8771 39.1645C49.8088 38.5505 49.6721 37.9365 49.3305 37.3907C49.1938 37.1178 49.0571 36.9131 48.8521 37.3224C48.7838 37.3907 48.6471 37.4589 48.5105 37.4589C48.3055 37.4589 48.1688 37.4589 47.9638 37.4589C47.4855 37.4589 46.9388 37.3907 46.4605 37.3907C46.3921 37.3907 46.3238 37.3224 46.2555 37.3224C46.1871 37.2542 46.1871 37.186 46.1871 37.1178C46.1871 36.4355 46.5971 35.5486 47.2121 35.2757C47.6221 35.0711 48.1005 34.8664 48.5788 34.7299C48.7838 34.6617 49.0571 34.5935 49.2621 34.5253C49.4671 34.457 49.7405 34.3888 49.9455 34.3206C50.8338 34.1159 51.7221 34.2524 52.5421 34.7299C52.7471 34.7982 52.9521 35.0028 53.0888 35.2075C53.2255 35.4122 53.2255 35.6851 53.1571 35.8897C53.0888 36.1626 53.0205 36.3673 52.8838 36.6402C52.7471 36.8449 52.4738 36.9813 52.2688 37.1178C52.1321 37.1178 51.5855 37.3224 51.5171 37.3224C51.3805 37.3224 51.2438 37.3224 51.1071 37.3224C51.0388 37.3224 50.9021 37.2542 50.8338 37.2542C50.6971 37.186 50.6288 37.1178 50.5605 37.0495C50.6971 37.5271 50.9021 38.0047 51.0388 38.6187C51.0388 38.6869 51.1071 38.7551 51.1071 38.7551C51.1755 38.8234 51.1755 38.8234 51.2438 38.8234C51.6538 38.9598 51.9955 39.028 52.4055 39.0963C52.6105 39.0963 52.6788 39.0963 52.8155 39.0963C53.0888 39.0963 53.3621 39.2327 53.4988 39.4374C53.7038 39.9149 53.8405 40.4607 53.8405 41.0065C53.8405 41.4159 53.9088 41.757 53.4988 41.8934C53.2938 41.9617 53.0888 41.9617 52.8838 41.9617C52.8155 41.9617 52.8155 41.9617 52.7471 42.0299C52.6788 42.0299 52.6788 42.0981 52.6788 42.0981C52.6788 42.0981 52.6105 42.1663 52.6105 42.2346C52.6105 42.3028 52.6105 42.3028 52.6105 42.371C52.6788 42.5757 52.6788 42.8486 52.7471 43.0532C52.7471 43.1215 52.7471 43.1897 52.7471 43.1897C52.7471 43.2579 52.6788 43.2579 52.6788 43.3261C52.6105 43.3944 52.6105 43.3944 52.5421 43.3944C52.4738 43.3944 52.4055 43.3944 52.4055 43.3944C52.1321 43.3944 51.8588 43.3944 51.6538 43.3944C50.9021 43.2579 50.1505 43.2579 49.3988 43.4626C49.1938 43.4626 49.0571 43.5308 48.9205 43.6672C48.7838 43.8037 48.6471 43.9401 48.5788 44.0766C48.5788 44.0766 48.5788 44.1448 48.5788 44.213C48.5788 44.2813 48.5788 44.2813 48.5788 44.3495L48.6471 44.4177C48.6471 44.4177 48.7155 44.4177 48.7838 44.4859C49.4671 44.6224 50.1505 44.5541 50.7655 44.4177C51.4488 44.213 52.2005 44.1448 52.8838 44.2813C52.9521 44.2813 53.0205 44.3495 53.0888 44.3495C53.0888 44.4177 53.1571 44.4177 53.1571 44.4859C53.1571 44.5542 53.1571 44.6224 53.1571 44.6224C53.1571 44.6906 53.0888 44.6906 53.0888 44.7588C53.0205 44.827 52.9521 44.8953 52.8838 44.9635C52.8155 44.9635 52.8155 45.0317 52.7471 45.0317C52.5421 45.0999 52.4055 45.0999 52.2005 45.0317C51.3805 44.7588 50.6288 44.8953 49.8771 45.0317C49.5355 45.0999 48.7838 44.9635 48.7155 45.1682C48.6471 45.4411 49.1255 45.714 49.3988 45.7822C49.8771 45.8504 50.4238 45.8504 50.9021 45.8504C51.1071 45.8504 51.3121 45.8504 51.5171 45.9186L51.6538 45.9869C51.7905 46.0551 51.9271 46.1233 52.0638 46.2597L52.1321 46.328C52.2688 46.5326 52.4055 46.7373 52.4055 46.942C52.4738 47.1467 52.4055 47.4195 52.3371 47.6242C52.0638 48.4429 51.9271 48.5793 51.0388 48.5111C50.0138 48.5793 49.1255 48.3747 48.3738 47.9653ZM48.4421 52.9457C48.9888 52.8092 49.4671 52.3999 49.7405 51.9223C49.8088 51.7859 50.0138 51.6494 50.1505 51.5812C50.2871 51.513 50.4921 51.513 50.6971 51.513C51.0388 51.5812 51.3805 51.6494 51.7221 51.6494C51.7905 51.6494 51.9271 51.6494 51.9955 51.7176C52.0638 51.7859 52.1321 51.8541 52.2005 51.9223C52.2688 51.9905 52.3371 52.127 52.3371 52.1952C52.3371 52.2634 52.3371 52.3999 52.3371 52.4681C52.0638 53.8326 51.9271 56.1522 53.3621 57.0391C53.6355 57.2438 54.0455 57.2438 54.0455 57.4484C54.0455 57.6531 53.9088 57.8578 52.6105 57.312C51.3121 56.7662 51.0388 54.2419 50.0138 53.6279C49.0571 53.0821 47.9638 54.6513 47.3488 54.1737C46.7338 53.6961 47.2805 53.2186 48.4421 52.9457ZM44.0005 61.3372C44.8205 61.4054 44.7521 63.9979 44.7521 63.9979C44.7521 64.2026 44.9571 64.339 45.3671 64.4072C45.3671 64.4072 49.6038 65.1577 49.6721 66.0446C49.7405 66.9315 47.4855 65.8399 47.4855 65.8399C47.0071 65.6353 46.8021 65.8399 47.0071 66.454L47.6905 68.0913C47.7588 68.1595 47.7588 68.296 47.7588 68.4324C47.7588 68.5689 47.6905 68.6371 47.6905 68.7736C47.6221 68.8418 47.5538 68.9782 47.4855 68.9782C47.4171 69.0465 47.2805 69.0465 47.2121 69.1147C47.0755 69.1147 46.9388 69.1829 46.8021 69.3194C46.6655 69.4558 46.6655 69.5922 46.6655 69.7287V69.7969L46.8021 70.8885C46.8021 70.9567 46.8021 71.0932 46.8021 71.1614C46.8021 71.2296 46.7338 71.3661 46.6655 71.4343C46.5971 71.5025 46.5288 71.5707 46.4605 71.639C46.3921 71.7072 46.2555 71.7072 46.1871 71.7072H45.8455C45.6405 71.7072 45.4355 71.639 45.2305 71.5025C45.0255 71.3661 44.9571 71.1614 44.8888 70.9567L44.3421 69.0464C44.2738 68.91 44.2738 68.7053 44.3421 68.5689C44.4105 68.4324 44.4788 68.2278 44.6155 68.1595L44.9571 67.8184C45.0938 67.682 45.1621 67.5455 45.2305 67.3409C45.2988 67.1362 45.2305 66.9997 45.2305 66.7951L44.2055 63.9297C43.8638 63.6568 43.1805 61.269 44.0005 61.3372Z" fill="#231F20"/>
<path d="M107.211 117.008H59.3781V124.854H107.211V117.008Z" />
<path d="M81.3097 106.297H53.4297V114.142H81.3097V106.297Z" />
<path d="M94.0221 127.582H72.2921V135.428H94.0221V127.582Z" />
<path d="M58.0811 107.457H55.6211V112.983H58.0811C58.1494 112.983 58.2861 112.983 58.3544 112.914C58.4228 112.914 58.4911 112.846 58.5594 112.778C58.6278 112.71 58.6961 112.642 58.6961 112.573C58.6961 112.505 58.7644 112.437 58.7644 112.3V108.071C58.7644 108.002 58.7644 107.866 58.6961 107.798C58.6961 107.729 58.6278 107.661 58.5594 107.593C58.4911 107.525 58.4228 107.457 58.3544 107.457C58.2178 107.457 58.1494 107.457 58.0811 107.457ZM57.7394 108.48V111.959C57.7394 112.028 57.7394 112.028 57.6711 112.028H56.6461V108.412H57.6711C57.6711 108.343 57.7394 108.412 57.7394 108.48Z" fill="black"/>
<path d="M60.4742 110.663H61.9775V109.708H60.4742V108.344H62.1142V107.388H59.4492V112.915H62.2509V111.959H60.4742V110.663Z" fill="black"/>
<path d="M66.8246 110.936L66.2096 107.457H64.9796L64.3646 110.936L63.818 107.457H62.793L63.6813 112.983H65.048L65.663 109.435L66.278 112.983H67.6446L68.533 107.525V107.457H67.508L66.8246 110.936Z" fill="black"/>
<path d="M71.1982 107.457H69.9682L68.6016 112.983H69.6266L69.8999 111.755H71.1299L71.4032 112.983H72.4282L71.1982 107.457ZM70.9932 110.8H70.2416L70.6516 109.162L70.9932 110.8Z" fill="black"/>
<path d="M74.1392 107.456H73.1142V112.983H75.9159V112.027H74.1392V107.456Z" fill="black"/>
<path d="M76.3242 108.412H77.2809V112.983H78.3059V108.412H79.2626V107.457H76.3242V108.412Z" fill="black"/>
<path d="M114.114 106.297H84.457V114.142H114.114V106.297Z" />
<path d="M89.3786 112.778C89.447 112.71 89.5153 112.641 89.5153 112.573C89.5153 112.505 89.5836 112.437 89.5836 112.3V110.39C89.5836 110.322 89.5836 110.185 89.5153 110.117C89.5153 110.049 89.447 109.981 89.3786 109.913C89.3103 109.844 89.242 109.776 89.1736 109.776C89.1053 109.776 89.037 109.708 88.9003 109.708H87.6703C87.6019 109.708 87.6019 109.708 87.6019 109.64V108.48C87.6019 108.412 87.6019 108.412 87.6703 108.412H89.3786V107.456H87.1919C87.1236 107.456 86.9869 107.456 86.9186 107.525C86.8503 107.525 86.7819 107.593 86.7136 107.661C86.6453 107.729 86.5769 107.798 86.5769 107.866C86.5769 107.934 86.5086 108.002 86.5086 108.139V110.049C86.5086 110.117 86.5086 110.254 86.5769 110.322C86.5769 110.39 86.6453 110.458 86.7136 110.527C86.7819 110.595 86.8503 110.663 86.9186 110.663C86.9869 110.663 87.0553 110.731 87.1919 110.731H88.4219C88.4903 110.731 88.4903 110.731 88.4903 110.799V111.959C88.4903 111.959 88.4903 111.959 88.4903 112.027C88.4903 112.027 88.4903 112.027 88.4219 112.027H86.5769V112.983H88.9003C88.9686 112.983 89.1053 112.983 89.1736 112.914C89.242 112.846 89.3103 112.846 89.3786 112.778Z" fill="black"/>
<path d="M92.2473 112.983V108.412H93.2039V107.457H90.2656V108.412H91.2223V112.983H92.2473Z" fill="black"/>
<path d="M96.0721 112.983H97.0971L95.7304 107.525V107.456H94.5004L93.1337 112.983H94.1587L94.4321 111.755H95.6621L96.0721 112.983ZM95.5937 110.799H94.8421L95.2521 109.162L95.5937 110.799Z" fill="black"/>
<path d="M97.6448 107.456V112.983H98.6698V110.049L99.8314 112.983H100.925V107.456H99.8998V110.39L98.7381 107.456H97.6448Z" fill="black"/>
<path d="M101.606 107.456V112.983H104.408V112.027H102.631V107.456H101.606Z" fill="black"/>
<path d="M106.185 110.663H107.689V109.708H106.185V108.344H107.825V107.388H105.16V112.915H107.962V111.959H106.185V110.663Z" fill="black"/>
<path d="M110.422 109.026L109.67 107.456H108.509L109.875 110.322V112.983H110.9V110.322L112.267 107.456H111.105L110.422 109.026Z" fill="black"/>
<path d="M63.9564 120.897C64.0248 120.897 64.0931 120.829 64.0931 120.76C64.1614 120.692 64.1614 120.624 64.2298 120.624C64.2298 120.556 64.2981 120.487 64.2298 120.419V118.782C64.2298 118.714 64.2298 118.577 64.1614 118.509C64.1614 118.441 64.0931 118.372 64.0248 118.304C63.9564 118.236 63.8881 118.168 63.8198 118.168C63.7514 118.168 63.6831 118.1 63.5464 118.1H61.0864V123.626H63.5464C63.6148 123.626 63.7514 123.626 63.8198 123.557C63.8881 123.557 63.9564 123.489 64.0248 123.421C64.0931 123.353 64.1614 123.285 64.1614 123.216C64.1614 123.148 64.2298 123.08 64.2298 122.943V121.306C64.2298 121.238 64.2298 121.17 64.1614 121.101C64.1614 121.033 64.0931 120.965 64.0248 120.965C64.0931 120.965 64.0248 120.897 63.9564 120.897ZM63.2731 119.191V120.351C63.2731 120.419 63.2731 120.419 63.2048 120.419H62.1798V119.055H63.1364C63.2048 119.123 63.2731 119.123 63.2731 119.191ZM63.2731 121.511V122.671C63.2731 122.739 63.2731 122.739 63.2048 122.739H62.1798V121.374H63.2048C63.2731 121.374 63.2731 121.443 63.2731 121.511Z" fill="black"/>
<path d="M66.0086 118.168H64.9836V123.694H67.7852V122.739H66.0086V118.168Z" fill="black"/>
<path d="M71.202 123.694H72.227L70.8604 118.236V118.168H69.6987L68.332 123.694H69.357L69.6304 122.466H70.8604L71.202 123.694ZM70.7237 121.511H69.972L70.382 119.873L70.7237 121.511Z" fill="black"/>
<path d="M73.4587 123.694H75.6454V122.739H73.9371C73.8687 122.739 73.8687 122.739 73.8687 122.67V119.259C73.8687 119.191 73.8687 119.191 73.9371 119.191H75.5087V118.236H73.5271C73.4587 118.236 73.3221 118.236 73.2537 118.304C73.1854 118.304 73.1171 118.372 73.0488 118.441C72.9804 118.509 72.9121 118.577 72.9121 118.645C72.9121 118.714 72.8438 118.782 72.8438 118.918V123.148C72.8438 123.216 72.8437 123.353 72.9121 123.421C72.9121 123.489 72.9804 123.557 73.0488 123.626C73.1171 123.694 73.1854 123.762 73.2537 123.762C73.2537 123.626 73.3904 123.694 73.4587 123.694Z" fill="black"/>
<path d="M77.3492 121.374H77.4176L78.5109 123.626H79.6042L78.3059 120.829L79.6042 118.1H78.5109L77.4176 120.419H77.3492V118.1H76.3242V123.626H77.3492V121.374Z" fill="black"/>
<path d="M81.312 122.466H81.9954V121.238H83.2254V120.555H81.9954V119.327H81.312V120.555H80.082V121.238H81.312V122.466Z" fill="black"/>
<path d="M86.9149 123.489C86.9832 123.421 87.0516 123.353 87.0516 123.285C87.0516 123.216 87.1199 123.148 87.1199 123.012V118.782C87.1199 118.714 87.1199 118.577 87.0516 118.509C87.0516 118.441 86.9832 118.372 86.9149 118.304C86.8466 118.236 86.7782 118.168 86.7099 118.168C86.6416 118.168 86.5732 118.1 86.4366 118.1H83.9766V123.626H86.4366C86.5049 123.626 86.6416 123.626 86.7099 123.558C86.7782 123.558 86.8466 123.558 86.9149 123.489ZM86.0949 119.191V122.671C86.0949 122.739 86.0949 122.739 86.0266 122.739H85.0016V119.055H86.0266C86.0266 119.055 86.0949 119.123 86.0949 119.191Z" fill="black"/>
<path d="M90.6064 122.739H88.8297V121.374H90.333V120.419H88.8297V119.055H90.4697V118.1H87.8047V123.626H90.6064V122.739Z" fill="black"/>
<path d="M94.1577 122.739H92.4494C92.381 122.739 92.381 122.739 92.381 122.671V119.259C92.381 119.191 92.381 119.191 92.4494 119.191H94.021V118.236H92.0394C91.971 118.236 91.8344 118.236 91.766 118.304C91.6977 118.304 91.6294 118.372 91.561 118.441C91.4927 118.509 91.4244 118.577 91.4244 118.645C91.4244 118.714 91.356 118.782 91.356 118.918V123.148C91.356 123.216 91.356 123.353 91.4244 123.421C91.4244 123.489 91.4927 123.557 91.561 123.626C91.6294 123.694 91.6977 123.762 91.766 123.762C91.8344 123.762 91.9027 123.83 92.0394 123.83H94.226V122.739H94.1577Z" fill="black"/>
<path d="M97.0304 118.168L95.9371 120.487H95.8687V118.168H94.8438V123.694H95.8687V121.374H95.9371L97.0304 123.626H98.1921L96.8937 120.829L98.1921 118.1L97.0304 118.168Z" fill="black"/>
<path d="M99.693 121.374H101.196V120.419H99.693V119.055H101.333V118.1H98.668V123.626H101.47V122.671H99.693V121.374Z" fill="black"/>
<path d="M104.413 121.374H104.687C104.755 121.374 104.892 121.374 104.96 121.306C105.028 121.306 105.097 121.238 105.165 121.17C105.233 121.101 105.302 121.033 105.302 120.965C105.302 120.897 105.37 120.829 105.37 120.692V118.782C105.37 118.714 105.37 118.577 105.302 118.509C105.302 118.441 105.233 118.372 105.165 118.304C105.097 118.236 105.028 118.168 104.96 118.168C104.892 118.168 104.823 118.1 104.687 118.1H102.227V123.626H103.252V121.306H103.32L104.413 123.558H105.507L104.413 121.374ZM104.277 119.191V120.351C104.277 120.419 104.277 120.419 104.208 120.419H103.183V119.055H104.208C104.277 119.123 104.277 119.123 104.277 119.191Z" fill="black"/>
<path d="M74.3438 128.742H75.2321V133.382H77.0771V134.2H74.3438V128.742Z" fill="black"/>
<path d="M77.6918 128.742H80.2884V129.561H78.5801V131.062H80.0834V131.881H78.5801V133.382H80.4251V134.2H77.6918V128.742Z" fill="black"/>
<path d="M81.0449 128.742H82.0016L83.2999 131.949V128.742H84.1882V134.2H83.1632L81.8649 130.994V134.2H80.9766V128.742H81.0449Z" fill="black"/>
<path d="M85.4818 128.742H87.3268C87.4635 128.742 87.6685 128.811 87.7368 128.947C87.8735 129.084 87.9418 129.22 87.9418 129.356V133.586C87.9418 133.723 87.8735 133.927 87.7368 133.996C87.6001 134.132 87.4635 134.2 87.3268 134.2H85.4818C85.3452 134.2 85.1402 134.132 85.0718 133.996C85.0035 133.859 84.8668 133.723 84.8668 133.586V129.356C84.8668 129.22 84.9352 129.015 85.0718 128.947C85.1402 128.811 85.2768 128.742 85.4818 128.742ZM86.8485 129.561H85.9602C85.8918 129.561 85.8235 129.629 85.8235 129.698V133.177C85.8235 133.245 85.8918 133.313 85.9602 133.313H86.8485C86.9168 133.313 86.9852 133.245 86.9852 133.177V129.698C86.9852 129.629 86.9168 129.561 86.8485 129.561Z" fill="black"/>
<path d="M88.3516 128.742H89.3766L90.1966 130.448L91.0166 128.742H92.0416L90.7432 131.471L92.0416 134.2H91.0166L90.1966 132.495L89.3766 134.2H88.3516L89.6499 131.471L88.3516 128.742Z" fill="black"/>
</svg>
