<svg width="1140" height="120" xmlns="http://www.w3.org/2000/svg"><path d="M0 0h1140v120H0z"/><path d="M.5-40h60l70 100-70 100H.5l70-100L.5-40Z" fill="#FBD504" fill-opacity=".5"/><path d="M120.5-40h60l70 100-70 100h-60l70-100-70-100Z" fill="#FBD504" fill-opacity=".7"/><path d="M240.5-40h60l70 100-70 100h-60l70-100-70-100Z" fill="#FBD504" fill-opacity=".9"/><path d="M1140.5-40h-60l-70 100 70 100h60l-70-100 70-100Z" fill="#FBD504" fill-opacity=".5"/><path d="M1020.5-40h-60l-70 100 70 100h60l-70-100 70-100Z" fill="#FBD504" fill-opacity=".7"/><path d="M900.5-40h-60l-70 100 70 100h60l-70-100 70-100Z" fill="#FBD504" fill-opacity=".9"/></svg>